G04 #@! TF.FileFunction,Legend,Top*
%FSLAX46Y46*%
G04 Gerber Fmt 4.6, Leading zero omitted, Abs format (unit mm)*
G04 Created by KiCad (PCBNEW 4.0.6) date 05/22/18 14:15:00*
%MOMM*%
%LPD*%
G01*
G04 APERTURE LIST*
%ADD10C,0.100000*%
%ADD11C,0.150000*%
%ADD12C,0.200000*%
%ADD13C,0.120000*%
%ADD14C,0.203200*%
G04 APERTURE END LIST*
D10*
D11*
X112702381Y-99702381D02*
X112702381Y-100178572D01*
X111702381Y-100178572D01*
X112178571Y-99369048D02*
X112178571Y-99035714D01*
X112702381Y-98892857D02*
X112702381Y-99369048D01*
X111702381Y-99369048D01*
X111702381Y-98892857D01*
X112702381Y-98464286D02*
X111702381Y-98464286D01*
X111702381Y-98226191D01*
X111750000Y-98083333D01*
X111845238Y-97988095D01*
X111940476Y-97940476D01*
X112130952Y-97892857D01*
X112273810Y-97892857D01*
X112464286Y-97940476D01*
X112559524Y-97988095D01*
X112654762Y-98083333D01*
X112702381Y-98226191D01*
X112702381Y-98464286D01*
X111702381Y-96511905D02*
X111702381Y-96321428D01*
X111750000Y-96226190D01*
X111845238Y-96130952D01*
X112035714Y-96083333D01*
X112369048Y-96083333D01*
X112559524Y-96130952D01*
X112654762Y-96226190D01*
X112702381Y-96321428D01*
X112702381Y-96511905D01*
X112654762Y-96607143D01*
X112559524Y-96702381D01*
X112369048Y-96750000D01*
X112035714Y-96750000D01*
X111845238Y-96702381D01*
X111750000Y-96607143D01*
X111702381Y-96511905D01*
X111702381Y-95654762D02*
X112511905Y-95654762D01*
X112607143Y-95607143D01*
X112654762Y-95559524D01*
X112702381Y-95464286D01*
X112702381Y-95273809D01*
X112654762Y-95178571D01*
X112607143Y-95130952D01*
X112511905Y-95083333D01*
X111702381Y-95083333D01*
X111702381Y-94750000D02*
X111702381Y-94178571D01*
X112702381Y-94464286D02*
X111702381Y-94464286D01*
X148928571Y-105761904D02*
X148976190Y-105619047D01*
X149023810Y-105571428D01*
X149119048Y-105523809D01*
X149261905Y-105523809D01*
X149357143Y-105571428D01*
X149404762Y-105619047D01*
X149452381Y-105714285D01*
X149452381Y-106095238D01*
X148452381Y-106095238D01*
X148452381Y-105761904D01*
X148500000Y-105666666D01*
X148547619Y-105619047D01*
X148642857Y-105571428D01*
X148738095Y-105571428D01*
X148833333Y-105619047D01*
X148880952Y-105666666D01*
X148928571Y-105761904D01*
X148928571Y-106095238D01*
X148452381Y-105095238D02*
X149261905Y-105095238D01*
X149357143Y-105047619D01*
X149404762Y-105000000D01*
X149452381Y-104904762D01*
X149452381Y-104714285D01*
X149404762Y-104619047D01*
X149357143Y-104571428D01*
X149261905Y-104523809D01*
X148452381Y-104523809D01*
X148452381Y-104190476D02*
X148452381Y-103619047D01*
X149452381Y-103904762D02*
X148452381Y-103904762D01*
X148452381Y-103428571D02*
X148452381Y-102857142D01*
X149452381Y-103142857D02*
X148452381Y-103142857D01*
X148452381Y-102333333D02*
X148452381Y-102142856D01*
X148500000Y-102047618D01*
X148595238Y-101952380D01*
X148785714Y-101904761D01*
X149119048Y-101904761D01*
X149309524Y-101952380D01*
X149404762Y-102047618D01*
X149452381Y-102142856D01*
X149452381Y-102333333D01*
X149404762Y-102428571D01*
X149309524Y-102523809D01*
X149119048Y-102571428D01*
X148785714Y-102571428D01*
X148595238Y-102523809D01*
X148500000Y-102428571D01*
X148452381Y-102333333D01*
X149452381Y-101476190D02*
X148452381Y-101476190D01*
X149452381Y-100904761D01*
X148452381Y-100904761D01*
X149452381Y-94285714D02*
X149452381Y-94761905D01*
X148452381Y-94761905D01*
X148928571Y-93952381D02*
X148928571Y-93619047D01*
X149452381Y-93476190D02*
X149452381Y-93952381D01*
X148452381Y-93952381D01*
X148452381Y-93476190D01*
X149452381Y-93047619D02*
X148452381Y-93047619D01*
X148452381Y-92809524D01*
X148500000Y-92666666D01*
X148595238Y-92571428D01*
X148690476Y-92523809D01*
X148880952Y-92476190D01*
X149023810Y-92476190D01*
X149214286Y-92523809D01*
X149309524Y-92571428D01*
X149404762Y-92666666D01*
X149452381Y-92809524D01*
X149452381Y-93047619D01*
X149452381Y-91285714D02*
X148452381Y-91285714D01*
X149452381Y-90809524D02*
X148452381Y-90809524D01*
X149452381Y-90238095D01*
X148452381Y-90238095D01*
D12*
X114500001Y-78928571D02*
X114500001Y-77428571D01*
X114857144Y-77428571D01*
X115071429Y-77500000D01*
X115214287Y-77642857D01*
X115285715Y-77785714D01*
X115357144Y-78071429D01*
X115357144Y-78285714D01*
X115285715Y-78571429D01*
X115214287Y-78714286D01*
X115071429Y-78857143D01*
X114857144Y-78928571D01*
X114500001Y-78928571D01*
X116214287Y-78928571D02*
X116071429Y-78857143D01*
X116000001Y-78785714D01*
X115928572Y-78642857D01*
X115928572Y-78214286D01*
X116000001Y-78071429D01*
X116071429Y-78000000D01*
X116214287Y-77928571D01*
X116428572Y-77928571D01*
X116571429Y-78000000D01*
X116642858Y-78071429D01*
X116714287Y-78214286D01*
X116714287Y-78642857D01*
X116642858Y-78785714D01*
X116571429Y-78857143D01*
X116428572Y-78928571D01*
X116214287Y-78928571D01*
X117571430Y-78928571D02*
X117428572Y-78857143D01*
X117357144Y-78785714D01*
X117285715Y-78642857D01*
X117285715Y-78214286D01*
X117357144Y-78071429D01*
X117428572Y-78000000D01*
X117571430Y-77928571D01*
X117785715Y-77928571D01*
X117928572Y-78000000D01*
X118000001Y-78071429D01*
X118071430Y-78214286D01*
X118071430Y-78642857D01*
X118000001Y-78785714D01*
X117928572Y-78857143D01*
X117785715Y-78928571D01*
X117571430Y-78928571D01*
X118714287Y-78928571D02*
X118714287Y-77928571D01*
X118714287Y-78214286D02*
X118785715Y-78071429D01*
X118857144Y-78000000D01*
X119000001Y-77928571D01*
X119142858Y-77928571D01*
X121285715Y-78142857D02*
X121500001Y-78214286D01*
X121571429Y-78285714D01*
X121642858Y-78428571D01*
X121642858Y-78642857D01*
X121571429Y-78785714D01*
X121500001Y-78857143D01*
X121357143Y-78928571D01*
X120785715Y-78928571D01*
X120785715Y-77428571D01*
X121285715Y-77428571D01*
X121428572Y-77500000D01*
X121500001Y-77571429D01*
X121571429Y-77714286D01*
X121571429Y-77857143D01*
X121500001Y-78000000D01*
X121428572Y-78071429D01*
X121285715Y-78142857D01*
X120785715Y-78142857D01*
X122928572Y-77928571D02*
X122928572Y-78928571D01*
X122285715Y-77928571D02*
X122285715Y-78714286D01*
X122357143Y-78857143D01*
X122500001Y-78928571D01*
X122714286Y-78928571D01*
X122857143Y-78857143D01*
X122928572Y-78785714D01*
X123428572Y-77928571D02*
X124000001Y-77928571D01*
X123642858Y-77428571D02*
X123642858Y-78714286D01*
X123714286Y-78857143D01*
X123857144Y-78928571D01*
X124000001Y-78928571D01*
X124285715Y-77928571D02*
X124857144Y-77928571D01*
X124500001Y-77428571D02*
X124500001Y-78714286D01*
X124571429Y-78857143D01*
X124714287Y-78928571D01*
X124857144Y-78928571D01*
X125571430Y-78928571D02*
X125428572Y-78857143D01*
X125357144Y-78785714D01*
X125285715Y-78642857D01*
X125285715Y-78214286D01*
X125357144Y-78071429D01*
X125428572Y-78000000D01*
X125571430Y-77928571D01*
X125785715Y-77928571D01*
X125928572Y-78000000D01*
X126000001Y-78071429D01*
X126071430Y-78214286D01*
X126071430Y-78642857D01*
X126000001Y-78785714D01*
X125928572Y-78857143D01*
X125785715Y-78928571D01*
X125571430Y-78928571D01*
X126714287Y-77928571D02*
X126714287Y-78928571D01*
X126714287Y-78071429D02*
X126785715Y-78000000D01*
X126928573Y-77928571D01*
X127142858Y-77928571D01*
X127285715Y-78000000D01*
X127357144Y-78142857D01*
X127357144Y-78928571D01*
X129714287Y-78142857D02*
X129928573Y-78214286D01*
X130000001Y-78285714D01*
X130071430Y-78428571D01*
X130071430Y-78642857D01*
X130000001Y-78785714D01*
X129928573Y-78857143D01*
X129785715Y-78928571D01*
X129214287Y-78928571D01*
X129214287Y-77428571D01*
X129714287Y-77428571D01*
X129857144Y-77500000D01*
X129928573Y-77571429D01*
X130000001Y-77714286D01*
X130000001Y-77857143D01*
X129928573Y-78000000D01*
X129857144Y-78071429D01*
X129714287Y-78142857D01*
X129214287Y-78142857D01*
X130928573Y-78928571D02*
X130785715Y-78857143D01*
X130714287Y-78785714D01*
X130642858Y-78642857D01*
X130642858Y-78214286D01*
X130714287Y-78071429D01*
X130785715Y-78000000D01*
X130928573Y-77928571D01*
X131142858Y-77928571D01*
X131285715Y-78000000D01*
X131357144Y-78071429D01*
X131428573Y-78214286D01*
X131428573Y-78642857D01*
X131357144Y-78785714D01*
X131285715Y-78857143D01*
X131142858Y-78928571D01*
X130928573Y-78928571D01*
X132714287Y-78928571D02*
X132714287Y-78142857D01*
X132642858Y-78000000D01*
X132500001Y-77928571D01*
X132214287Y-77928571D01*
X132071430Y-78000000D01*
X132714287Y-78857143D02*
X132571430Y-78928571D01*
X132214287Y-78928571D01*
X132071430Y-78857143D01*
X132000001Y-78714286D01*
X132000001Y-78571429D01*
X132071430Y-78428571D01*
X132214287Y-78357143D01*
X132571430Y-78357143D01*
X132714287Y-78285714D01*
X133428573Y-78928571D02*
X133428573Y-77928571D01*
X133428573Y-78214286D02*
X133500001Y-78071429D01*
X133571430Y-78000000D01*
X133714287Y-77928571D01*
X133857144Y-77928571D01*
X135000001Y-78928571D02*
X135000001Y-77428571D01*
X135000001Y-78857143D02*
X134857144Y-78928571D01*
X134571430Y-78928571D01*
X134428572Y-78857143D01*
X134357144Y-78785714D01*
X134285715Y-78642857D01*
X134285715Y-78214286D01*
X134357144Y-78071429D01*
X134428572Y-78000000D01*
X134571430Y-77928571D01*
X134857144Y-77928571D01*
X135000001Y-78000000D01*
X136857144Y-78357143D02*
X138000001Y-78357143D01*
X140714287Y-78928571D02*
X140214287Y-78214286D01*
X139857144Y-78928571D02*
X139857144Y-77428571D01*
X140428572Y-77428571D01*
X140571430Y-77500000D01*
X140642858Y-77571429D01*
X140714287Y-77714286D01*
X140714287Y-77928571D01*
X140642858Y-78071429D01*
X140571430Y-78142857D01*
X140428572Y-78214286D01*
X139857144Y-78214286D01*
X141928572Y-78857143D02*
X141785715Y-78928571D01*
X141500001Y-78928571D01*
X141357144Y-78857143D01*
X141285715Y-78714286D01*
X141285715Y-78142857D01*
X141357144Y-78000000D01*
X141500001Y-77928571D01*
X141785715Y-77928571D01*
X141928572Y-78000000D01*
X142000001Y-78142857D01*
X142000001Y-78285714D01*
X141285715Y-78428571D01*
X142500001Y-77928571D02*
X142857144Y-78928571D01*
X143214286Y-77928571D01*
X144857143Y-78500000D02*
X145571429Y-78500000D01*
X144714286Y-78928571D02*
X145214286Y-77428571D01*
X145714286Y-78928571D01*
D13*
X121500000Y-90400000D02*
X120500000Y-90400000D01*
X120500000Y-92100000D02*
X121500000Y-92100000D01*
X139750000Y-94150000D02*
X138750000Y-94150000D01*
X138750000Y-95850000D02*
X139750000Y-95850000D01*
X158115000Y-92210000D02*
X153765000Y-92210000D01*
X153765000Y-92210000D02*
X153765000Y-87210000D01*
X153765000Y-87210000D02*
X158115000Y-87210000D01*
X151915000Y-93510000D02*
X151915000Y-93860000D01*
X151915000Y-93860000D02*
X150315000Y-93860000D01*
X150315000Y-93860000D02*
X150315000Y-94760000D01*
X150315000Y-94760000D02*
X158115000Y-94760000D01*
X158115000Y-94760000D02*
X158115000Y-84660000D01*
X158115000Y-84660000D02*
X150315000Y-84660000D01*
X150315000Y-84660000D02*
X150315000Y-85560000D01*
X150315000Y-85560000D02*
X151915000Y-85560000D01*
X151915000Y-85560000D02*
X151915000Y-85910000D01*
X151915000Y-94760000D02*
X151915000Y-93860000D01*
X151915000Y-84660000D02*
X151915000Y-85560000D01*
X154265000Y-94010000D02*
X155865000Y-94010000D01*
X155865000Y-94010000D02*
X155865000Y-93010000D01*
X155865000Y-93010000D02*
X154265000Y-93010000D01*
X154265000Y-93010000D02*
X154265000Y-94010000D01*
X154265000Y-85410000D02*
X155865000Y-85410000D01*
X155865000Y-85410000D02*
X155865000Y-86410000D01*
X155865000Y-86410000D02*
X154265000Y-86410000D01*
X154265000Y-86410000D02*
X154265000Y-85410000D01*
X155865000Y-93010000D02*
X158115000Y-93010000D01*
X155865000Y-93510000D02*
X158115000Y-93510000D01*
X151915000Y-93510000D02*
X150715000Y-93510000D01*
X158115000Y-101735000D02*
X153765000Y-101735000D01*
X153765000Y-101735000D02*
X153765000Y-100735000D01*
X153765000Y-100735000D02*
X158115000Y-100735000D01*
X151915000Y-103035000D02*
X151915000Y-103385000D01*
X151915000Y-103385000D02*
X150315000Y-103385000D01*
X150315000Y-103385000D02*
X150315000Y-104285000D01*
X150315000Y-104285000D02*
X158115000Y-104285000D01*
X158115000Y-104285000D02*
X158115000Y-98185000D01*
X158115000Y-98185000D02*
X150315000Y-98185000D01*
X150315000Y-98185000D02*
X150315000Y-99085000D01*
X150315000Y-99085000D02*
X151915000Y-99085000D01*
X151915000Y-99085000D02*
X151915000Y-99435000D01*
X151915000Y-104285000D02*
X151915000Y-103385000D01*
X151915000Y-98185000D02*
X151915000Y-99085000D01*
X154265000Y-103535000D02*
X155865000Y-103535000D01*
X155865000Y-103535000D02*
X155865000Y-102535000D01*
X155865000Y-102535000D02*
X154265000Y-102535000D01*
X154265000Y-102535000D02*
X154265000Y-103535000D01*
X154265000Y-98935000D02*
X155865000Y-98935000D01*
X155865000Y-98935000D02*
X155865000Y-99935000D01*
X155865000Y-99935000D02*
X154265000Y-99935000D01*
X154265000Y-99935000D02*
X154265000Y-98935000D01*
X155865000Y-102535000D02*
X158115000Y-102535000D01*
X155865000Y-103035000D02*
X158115000Y-103035000D01*
X151915000Y-103035000D02*
X150715000Y-103035000D01*
X102235000Y-92575000D02*
X106585000Y-92575000D01*
X106585000Y-92575000D02*
X106585000Y-97575000D01*
X106585000Y-97575000D02*
X102235000Y-97575000D01*
X108435000Y-91275000D02*
X108435000Y-90925000D01*
X108435000Y-90925000D02*
X110035000Y-90925000D01*
X110035000Y-90925000D02*
X110035000Y-90025000D01*
X110035000Y-90025000D02*
X102235000Y-90025000D01*
X102235000Y-90025000D02*
X102235000Y-100125000D01*
X102235000Y-100125000D02*
X110035000Y-100125000D01*
X110035000Y-100125000D02*
X110035000Y-99225000D01*
X110035000Y-99225000D02*
X108435000Y-99225000D01*
X108435000Y-99225000D02*
X108435000Y-98875000D01*
X108435000Y-90025000D02*
X108435000Y-90925000D01*
X108435000Y-100125000D02*
X108435000Y-99225000D01*
X106085000Y-90775000D02*
X104485000Y-90775000D01*
X104485000Y-90775000D02*
X104485000Y-91775000D01*
X104485000Y-91775000D02*
X106085000Y-91775000D01*
X106085000Y-91775000D02*
X106085000Y-90775000D01*
X106085000Y-99375000D02*
X104485000Y-99375000D01*
X104485000Y-99375000D02*
X104485000Y-98375000D01*
X104485000Y-98375000D02*
X106085000Y-98375000D01*
X106085000Y-98375000D02*
X106085000Y-99375000D01*
X104485000Y-91775000D02*
X102235000Y-91775000D01*
X104485000Y-91275000D02*
X102235000Y-91275000D01*
X108435000Y-91275000D02*
X109635000Y-91275000D01*
X127880000Y-107400000D02*
X127880000Y-108600000D01*
X126120000Y-108600000D02*
X126120000Y-107400000D01*
X131370000Y-108600000D02*
X131370000Y-107400000D01*
X133130000Y-107400000D02*
X133130000Y-108600000D01*
X138630000Y-107400000D02*
X138630000Y-108600000D01*
X136870000Y-108600000D02*
X136870000Y-107400000D01*
X130834194Y-98939981D02*
X134016175Y-95758000D01*
X127121883Y-96995437D02*
X128182544Y-98056097D01*
X129419981Y-91161806D02*
X126238000Y-94343786D01*
X133132291Y-93106350D02*
X132071631Y-92045689D01*
D14*
X127675000Y-81955000D02*
X132675000Y-81955000D01*
X127675000Y-86955000D02*
X132675000Y-86955000D01*
D11*
X132816953Y-87503000D02*
G75*
G03X132816953Y-87503000I-228953J0D01*
G01*
X132677803Y-87503000D02*
G75*
G03X132677803Y-87503000I-89803J0D01*
G01*
D14*
X136819000Y-98084000D02*
X141819000Y-98084000D01*
X136819000Y-103084000D02*
X141819000Y-103084000D01*
D11*
X141960953Y-103632000D02*
G75*
G03X141960953Y-103632000I-228953J0D01*
G01*
X141821803Y-103632000D02*
G75*
G03X141821803Y-103632000I-89803J0D01*
G01*
D14*
X118500000Y-98000000D02*
X123500000Y-98000000D01*
X118500000Y-103000000D02*
X123500000Y-103000000D01*
D11*
X123641953Y-103548000D02*
G75*
G03X123641953Y-103548000I-228953J0D01*
G01*
X123502803Y-103548000D02*
G75*
G03X123502803Y-103548000I-89803J0D01*
G01*
X154241667Y-106877381D02*
X153908333Y-106401190D01*
X153670238Y-106877381D02*
X153670238Y-105877381D01*
X154051191Y-105877381D01*
X154146429Y-105925000D01*
X154194048Y-105972619D01*
X154241667Y-106067857D01*
X154241667Y-106210714D01*
X154194048Y-106305952D01*
X154146429Y-106353571D01*
X154051191Y-106401190D01*
X153670238Y-106401190D01*
X154670238Y-106353571D02*
X155003572Y-106353571D01*
X155146429Y-106877381D02*
X154670238Y-106877381D01*
X154670238Y-105877381D01*
X155146429Y-105877381D01*
X155908334Y-106353571D02*
X155575000Y-106353571D01*
X155575000Y-106877381D02*
X155575000Y-105877381D01*
X156051191Y-105877381D01*
X156575000Y-105877381D02*
X156575000Y-106115476D01*
X156336905Y-106020238D02*
X156575000Y-106115476D01*
X156813096Y-106020238D01*
X156432143Y-106305952D02*
X156575000Y-106115476D01*
X156717858Y-106305952D01*
X157336905Y-105877381D02*
X157336905Y-106115476D01*
X157098810Y-106020238D02*
X157336905Y-106115476D01*
X157575001Y-106020238D01*
X157194048Y-106305952D02*
X157336905Y-106115476D01*
X157479763Y-106305952D01*
X103441667Y-106877381D02*
X103108333Y-106401190D01*
X102870238Y-106877381D02*
X102870238Y-105877381D01*
X103251191Y-105877381D01*
X103346429Y-105925000D01*
X103394048Y-105972619D01*
X103441667Y-106067857D01*
X103441667Y-106210714D01*
X103394048Y-106305952D01*
X103346429Y-106353571D01*
X103251191Y-106401190D01*
X102870238Y-106401190D01*
X103870238Y-106353571D02*
X104203572Y-106353571D01*
X104346429Y-106877381D02*
X103870238Y-106877381D01*
X103870238Y-105877381D01*
X104346429Y-105877381D01*
X105108334Y-106353571D02*
X104775000Y-106353571D01*
X104775000Y-106877381D02*
X104775000Y-105877381D01*
X105251191Y-105877381D01*
X105775000Y-105877381D02*
X105775000Y-106115476D01*
X105536905Y-106020238D02*
X105775000Y-106115476D01*
X106013096Y-106020238D01*
X105632143Y-106305952D02*
X105775000Y-106115476D01*
X105917858Y-106305952D01*
X106536905Y-105877381D02*
X106536905Y-106115476D01*
X106298810Y-106020238D02*
X106536905Y-106115476D01*
X106775001Y-106020238D01*
X106394048Y-106305952D02*
X106536905Y-106115476D01*
X106679763Y-106305952D01*
X120833334Y-90107143D02*
X120785715Y-90154762D01*
X120642858Y-90202381D01*
X120547620Y-90202381D01*
X120404762Y-90154762D01*
X120309524Y-90059524D01*
X120261905Y-89964286D01*
X120214286Y-89773810D01*
X120214286Y-89630952D01*
X120261905Y-89440476D01*
X120309524Y-89345238D01*
X120404762Y-89250000D01*
X120547620Y-89202381D01*
X120642858Y-89202381D01*
X120785715Y-89250000D01*
X120833334Y-89297619D01*
X121785715Y-90202381D02*
X121214286Y-90202381D01*
X121500000Y-90202381D02*
X121500000Y-89202381D01*
X121404762Y-89345238D01*
X121309524Y-89440476D01*
X121214286Y-89488095D01*
X119357143Y-92452381D02*
X119452382Y-92452381D01*
X119547620Y-92500000D01*
X119595239Y-92547619D01*
X119642858Y-92642857D01*
X119690477Y-92833333D01*
X119690477Y-93071429D01*
X119642858Y-93261905D01*
X119595239Y-93357143D01*
X119547620Y-93404762D01*
X119452382Y-93452381D01*
X119357143Y-93452381D01*
X119261905Y-93404762D01*
X119214286Y-93357143D01*
X119166667Y-93261905D01*
X119119048Y-93071429D01*
X119119048Y-92833333D01*
X119166667Y-92642857D01*
X119214286Y-92547619D01*
X119261905Y-92500000D01*
X119357143Y-92452381D01*
X120119048Y-93357143D02*
X120166667Y-93404762D01*
X120119048Y-93452381D01*
X120071429Y-93404762D01*
X120119048Y-93357143D01*
X120119048Y-93452381D01*
X121119048Y-93452381D02*
X120547619Y-93452381D01*
X120833333Y-93452381D02*
X120833333Y-92452381D01*
X120738095Y-92595238D01*
X120642857Y-92690476D01*
X120547619Y-92738095D01*
X121976191Y-92785714D02*
X121976191Y-93452381D01*
X121547619Y-92785714D02*
X121547619Y-93309524D01*
X121595238Y-93404762D01*
X121690476Y-93452381D01*
X121833334Y-93452381D01*
X121928572Y-93404762D01*
X121976191Y-93357143D01*
X122785715Y-92928571D02*
X122452381Y-92928571D01*
X122452381Y-93452381D02*
X122452381Y-92452381D01*
X122928572Y-92452381D01*
X139083334Y-93857143D02*
X139035715Y-93904762D01*
X138892858Y-93952381D01*
X138797620Y-93952381D01*
X138654762Y-93904762D01*
X138559524Y-93809524D01*
X138511905Y-93714286D01*
X138464286Y-93523810D01*
X138464286Y-93380952D01*
X138511905Y-93190476D01*
X138559524Y-93095238D01*
X138654762Y-93000000D01*
X138797620Y-92952381D01*
X138892858Y-92952381D01*
X139035715Y-93000000D01*
X139083334Y-93047619D01*
X139464286Y-93047619D02*
X139511905Y-93000000D01*
X139607143Y-92952381D01*
X139845239Y-92952381D01*
X139940477Y-93000000D01*
X139988096Y-93047619D01*
X140035715Y-93142857D01*
X140035715Y-93238095D01*
X139988096Y-93380952D01*
X139416667Y-93952381D01*
X140035715Y-93952381D01*
X137607143Y-96202381D02*
X137702382Y-96202381D01*
X137797620Y-96250000D01*
X137845239Y-96297619D01*
X137892858Y-96392857D01*
X137940477Y-96583333D01*
X137940477Y-96821429D01*
X137892858Y-97011905D01*
X137845239Y-97107143D01*
X137797620Y-97154762D01*
X137702382Y-97202381D01*
X137607143Y-97202381D01*
X137511905Y-97154762D01*
X137464286Y-97107143D01*
X137416667Y-97011905D01*
X137369048Y-96821429D01*
X137369048Y-96583333D01*
X137416667Y-96392857D01*
X137464286Y-96297619D01*
X137511905Y-96250000D01*
X137607143Y-96202381D01*
X138369048Y-97107143D02*
X138416667Y-97154762D01*
X138369048Y-97202381D01*
X138321429Y-97154762D01*
X138369048Y-97107143D01*
X138369048Y-97202381D01*
X139369048Y-97202381D02*
X138797619Y-97202381D01*
X139083333Y-97202381D02*
X139083333Y-96202381D01*
X138988095Y-96345238D01*
X138892857Y-96440476D01*
X138797619Y-96488095D01*
X140226191Y-96535714D02*
X140226191Y-97202381D01*
X139797619Y-96535714D02*
X139797619Y-97059524D01*
X139845238Y-97154762D01*
X139940476Y-97202381D01*
X140083334Y-97202381D01*
X140178572Y-97154762D01*
X140226191Y-97107143D01*
X141035715Y-96678571D02*
X140702381Y-96678571D01*
X140702381Y-97202381D02*
X140702381Y-96202381D01*
X141178572Y-96202381D01*
X148416667Y-84702381D02*
X148416667Y-85416667D01*
X148369047Y-85559524D01*
X148273809Y-85654762D01*
X148130952Y-85702381D01*
X148035714Y-85702381D01*
X149416667Y-85702381D02*
X148845238Y-85702381D01*
X149130952Y-85702381D02*
X149130952Y-84702381D01*
X149035714Y-84845238D01*
X148940476Y-84940476D01*
X148845238Y-84988095D01*
X148666667Y-97952381D02*
X148666667Y-98666667D01*
X148619047Y-98809524D01*
X148523809Y-98904762D01*
X148380952Y-98952381D01*
X148285714Y-98952381D01*
X149095238Y-98047619D02*
X149142857Y-98000000D01*
X149238095Y-97952381D01*
X149476191Y-97952381D01*
X149571429Y-98000000D01*
X149619048Y-98047619D01*
X149666667Y-98142857D01*
X149666667Y-98238095D01*
X149619048Y-98380952D01*
X149047619Y-98952381D01*
X149666667Y-98952381D01*
X111916667Y-90202381D02*
X111916667Y-90916667D01*
X111869047Y-91059524D01*
X111773809Y-91154762D01*
X111630952Y-91202381D01*
X111535714Y-91202381D01*
X112297619Y-90202381D02*
X112916667Y-90202381D01*
X112583333Y-90583333D01*
X112726191Y-90583333D01*
X112821429Y-90630952D01*
X112869048Y-90678571D01*
X112916667Y-90773810D01*
X112916667Y-91011905D01*
X112869048Y-91107143D01*
X112821429Y-91154762D01*
X112726191Y-91202381D01*
X112440476Y-91202381D01*
X112345238Y-91154762D01*
X112297619Y-91107143D01*
X126833334Y-105952381D02*
X126500000Y-105476190D01*
X126261905Y-105952381D02*
X126261905Y-104952381D01*
X126642858Y-104952381D01*
X126738096Y-105000000D01*
X126785715Y-105047619D01*
X126833334Y-105142857D01*
X126833334Y-105285714D01*
X126785715Y-105380952D01*
X126738096Y-105428571D01*
X126642858Y-105476190D01*
X126261905Y-105476190D01*
X127785715Y-105952381D02*
X127214286Y-105952381D01*
X127500000Y-105952381D02*
X127500000Y-104952381D01*
X127404762Y-105095238D01*
X127309524Y-105190476D01*
X127214286Y-105238095D01*
X126785715Y-110952381D02*
X126214286Y-110952381D01*
X126500000Y-110952381D02*
X126500000Y-109952381D01*
X126404762Y-110095238D01*
X126309524Y-110190476D01*
X126214286Y-110238095D01*
X127214286Y-110952381D02*
X127214286Y-109952381D01*
X127785715Y-110952381D02*
X127357143Y-110380952D01*
X127785715Y-109952381D02*
X127214286Y-110523810D01*
X132083334Y-105952381D02*
X131750000Y-105476190D01*
X131511905Y-105952381D02*
X131511905Y-104952381D01*
X131892858Y-104952381D01*
X131988096Y-105000000D01*
X132035715Y-105047619D01*
X132083334Y-105142857D01*
X132083334Y-105285714D01*
X132035715Y-105380952D01*
X131988096Y-105428571D01*
X131892858Y-105476190D01*
X131511905Y-105476190D01*
X132464286Y-105047619D02*
X132511905Y-105000000D01*
X132607143Y-104952381D01*
X132845239Y-104952381D01*
X132940477Y-105000000D01*
X132988096Y-105047619D01*
X133035715Y-105142857D01*
X133035715Y-105238095D01*
X132988096Y-105380952D01*
X132416667Y-105952381D01*
X133035715Y-105952381D01*
X131464286Y-110047619D02*
X131511905Y-110000000D01*
X131607143Y-109952381D01*
X131845239Y-109952381D01*
X131940477Y-110000000D01*
X131988096Y-110047619D01*
X132035715Y-110142857D01*
X132035715Y-110238095D01*
X131988096Y-110380952D01*
X131416667Y-110952381D01*
X132035715Y-110952381D01*
X132464286Y-110952381D02*
X132464286Y-109952381D01*
X133035715Y-110952381D02*
X132607143Y-110380952D01*
X133035715Y-109952381D02*
X132464286Y-110523810D01*
X137583334Y-105952381D02*
X137250000Y-105476190D01*
X137011905Y-105952381D02*
X137011905Y-104952381D01*
X137392858Y-104952381D01*
X137488096Y-105000000D01*
X137535715Y-105047619D01*
X137583334Y-105142857D01*
X137583334Y-105285714D01*
X137535715Y-105380952D01*
X137488096Y-105428571D01*
X137392858Y-105476190D01*
X137011905Y-105476190D01*
X137916667Y-104952381D02*
X138535715Y-104952381D01*
X138202381Y-105333333D01*
X138345239Y-105333333D01*
X138440477Y-105380952D01*
X138488096Y-105428571D01*
X138535715Y-105523810D01*
X138535715Y-105761905D01*
X138488096Y-105857143D01*
X138440477Y-105904762D01*
X138345239Y-105952381D01*
X138059524Y-105952381D01*
X137964286Y-105904762D01*
X137916667Y-105857143D01*
X137011905Y-109952381D02*
X136535714Y-109952381D01*
X136488095Y-110428571D01*
X136535714Y-110380952D01*
X136630952Y-110333333D01*
X136869048Y-110333333D01*
X136964286Y-110380952D01*
X137011905Y-110428571D01*
X137059524Y-110523810D01*
X137059524Y-110761905D01*
X137011905Y-110857143D01*
X136964286Y-110904762D01*
X136869048Y-110952381D01*
X136630952Y-110952381D01*
X136535714Y-110904762D01*
X136488095Y-110857143D01*
X138011905Y-110952381D02*
X137440476Y-110952381D01*
X137726190Y-110952381D02*
X137726190Y-109952381D01*
X137630952Y-110095238D01*
X137535714Y-110190476D01*
X137440476Y-110238095D01*
X138440476Y-110952381D02*
X138440476Y-109952381D01*
X139011905Y-110952381D02*
X138583333Y-110380952D01*
X139011905Y-109952381D02*
X138440476Y-110523810D01*
X125843401Y-92729019D02*
X125978088Y-92661675D01*
X126146447Y-92493316D01*
X126180119Y-92392301D01*
X126180119Y-92324957D01*
X126146447Y-92223942D01*
X126079104Y-92156599D01*
X125978089Y-92122927D01*
X125910745Y-92122927D01*
X125809729Y-92156598D01*
X125641370Y-92257614D01*
X125540355Y-92291286D01*
X125473012Y-92291286D01*
X125371996Y-92257614D01*
X125304653Y-92190271D01*
X125270981Y-92089255D01*
X125270981Y-92021912D01*
X125304653Y-91920897D01*
X125473012Y-91752538D01*
X125607699Y-91685194D01*
X125809729Y-91415820D02*
X126685195Y-91954569D01*
X126314806Y-91314804D01*
X126954569Y-91685194D01*
X126415821Y-90809729D01*
X127762691Y-90877072D02*
X127358630Y-91281133D01*
X127560660Y-91079103D02*
X126853553Y-90371996D01*
X126887225Y-90540355D01*
X126887225Y-90675042D01*
X126853553Y-90776057D01*
X129488095Y-79952381D02*
X129488095Y-80761905D01*
X129535714Y-80857143D01*
X129583333Y-80904762D01*
X129678571Y-80952381D01*
X129869048Y-80952381D01*
X129964286Y-80904762D01*
X130011905Y-80857143D01*
X130059524Y-80761905D01*
X130059524Y-79952381D01*
X131059524Y-80952381D02*
X130488095Y-80952381D01*
X130773809Y-80952381D02*
X130773809Y-79952381D01*
X130678571Y-80095238D01*
X130583333Y-80190476D01*
X130488095Y-80238095D01*
X138557095Y-103592381D02*
X138557095Y-104401905D01*
X138604714Y-104497143D01*
X138652333Y-104544762D01*
X138747571Y-104592381D01*
X138938048Y-104592381D01*
X139033286Y-104544762D01*
X139080905Y-104497143D01*
X139128524Y-104401905D01*
X139128524Y-103592381D01*
X139557095Y-103687619D02*
X139604714Y-103640000D01*
X139699952Y-103592381D01*
X139938048Y-103592381D01*
X140033286Y-103640000D01*
X140080905Y-103687619D01*
X140128524Y-103782857D01*
X140128524Y-103878095D01*
X140080905Y-104020952D01*
X139509476Y-104592381D01*
X140128524Y-104592381D01*
X120238095Y-103508381D02*
X120238095Y-104317905D01*
X120285714Y-104413143D01*
X120333333Y-104460762D01*
X120428571Y-104508381D01*
X120619048Y-104508381D01*
X120714286Y-104460762D01*
X120761905Y-104413143D01*
X120809524Y-104317905D01*
X120809524Y-103508381D01*
X121190476Y-103508381D02*
X121809524Y-103508381D01*
X121476190Y-103889333D01*
X121619048Y-103889333D01*
X121714286Y-103936952D01*
X121761905Y-103984571D01*
X121809524Y-104079810D01*
X121809524Y-104317905D01*
X121761905Y-104413143D01*
X121714286Y-104460762D01*
X121619048Y-104508381D01*
X121333333Y-104508381D01*
X121238095Y-104460762D01*
X121190476Y-104413143D01*
M02*
