M48
;DRILL file {KiCad 4.0.6} date 05/22/18 14:15:03
;FORMAT={-:-/ absolute / inch / decimal}
FMAT,2
INCH,TZ
T1C0.016
T2C0.030
T3C0.043
%
G90
G05
M72
T1
X4.7638Y-3.937
X4.9311Y-3.3366
X4.9705Y-3.8878
X4.9902Y-4.1043
X5.128Y-3.2579
X5.2165Y-4.3504
X5.2559Y-3.1693
X5.2657Y-3.9075
X5.3445Y-4.1043
X5.502Y-4.1929
X5.6693Y-3.8583
T2
X4.275Y-3.625
X4.275Y-3.7037
X4.275Y-3.7825
X4.275Y-3.8612
X5.975Y-3.4138
X5.975Y-3.4925
X5.975Y-3.5713
X5.975Y-3.65
X5.975Y-3.9463
X5.975Y-4.025
T3
X4.97Y-3.77
X5.0953Y-3.8953
X5.151Y-3.589
X5.2762Y-3.7143
T0
M30
