G04 #@! TF.FileFunction,Copper,L1,Top,Signal*
%FSLAX46Y46*%
G04 Gerber Fmt 4.6, Leading zero omitted, Abs format (unit mm)*
G04 Created by KiCad (PCBNEW 4.0.6) date 05/22/18 14:15:00*
%MOMM*%
%LPD*%
G01*
G04 APERTURE LIST*
%ADD10C,0.100000*%
%ADD11R,1.000000X1.250000*%
%ADD12R,1.700000X1.200000*%
%ADD13O,1.700000X1.200000*%
%ADD14R,1.300000X0.700000*%
%ADD15C,2.000000*%
%ADD16R,2.000000X1.100000*%
%ADD17C,0.600000*%
%ADD18C,0.500000*%
%ADD19C,0.250000*%
G04 APERTURE END LIST*
D10*
X109780951Y-112561905D02*
X110047618Y-113361905D01*
X110314285Y-112561905D01*
X110885713Y-113323810D02*
X110809523Y-113361905D01*
X110657142Y-113361905D01*
X110580951Y-113323810D01*
X110542856Y-113247619D01*
X110542856Y-112942857D01*
X110580951Y-112866667D01*
X110657142Y-112828571D01*
X110809523Y-112828571D01*
X110885713Y-112866667D01*
X110923808Y-112942857D01*
X110923808Y-113019048D01*
X110542856Y-113095238D01*
X111571427Y-113323810D02*
X111495237Y-113361905D01*
X111342856Y-113361905D01*
X111266665Y-113323810D01*
X111228570Y-113247619D01*
X111228570Y-112942857D01*
X111266665Y-112866667D01*
X111342856Y-112828571D01*
X111495237Y-112828571D01*
X111571427Y-112866667D01*
X111609522Y-112942857D01*
X111609522Y-113019048D01*
X111228570Y-113095238D01*
X111952379Y-112828571D02*
X111952379Y-113361905D01*
X111952379Y-112904762D02*
X111990474Y-112866667D01*
X112066665Y-112828571D01*
X112180951Y-112828571D01*
X112257141Y-112866667D01*
X112295236Y-112942857D01*
X112295236Y-113361905D01*
X112980951Y-113323810D02*
X112904761Y-113361905D01*
X112752380Y-113361905D01*
X112676189Y-113323810D01*
X112638094Y-113247619D01*
X112638094Y-112942857D01*
X112676189Y-112866667D01*
X112752380Y-112828571D01*
X112904761Y-112828571D01*
X112980951Y-112866667D01*
X113019046Y-112942857D01*
X113019046Y-113019048D01*
X112638094Y-113095238D01*
X113361903Y-113361905D02*
X113361903Y-112828571D01*
X113361903Y-112904762D02*
X113399998Y-112866667D01*
X113476189Y-112828571D01*
X113590475Y-112828571D01*
X113666665Y-112866667D01*
X113704760Y-112942857D01*
X113704760Y-113361905D01*
X113704760Y-112942857D02*
X113742856Y-112866667D01*
X113819046Y-112828571D01*
X113933332Y-112828571D01*
X114009522Y-112866667D01*
X114047617Y-112942857D01*
X114047617Y-113361905D01*
X114771427Y-113361905D02*
X114771427Y-112942857D01*
X114733332Y-112866667D01*
X114657142Y-112828571D01*
X114504761Y-112828571D01*
X114428570Y-112866667D01*
X114771427Y-113323810D02*
X114695237Y-113361905D01*
X114504761Y-113361905D01*
X114428570Y-113323810D01*
X114390475Y-113247619D01*
X114390475Y-113171429D01*
X114428570Y-113095238D01*
X114504761Y-113057143D01*
X114695237Y-113057143D01*
X114771427Y-113019048D01*
X115761904Y-113361905D02*
X115761904Y-112561905D01*
X115952380Y-112561905D01*
X116066666Y-112600000D01*
X116142857Y-112676190D01*
X116180952Y-112752381D01*
X116219047Y-112904762D01*
X116219047Y-113019048D01*
X116180952Y-113171429D01*
X116142857Y-113247619D01*
X116066666Y-113323810D01*
X115952380Y-113361905D01*
X115761904Y-113361905D01*
X116866666Y-113323810D02*
X116790476Y-113361905D01*
X116638095Y-113361905D01*
X116561904Y-113323810D01*
X116523809Y-113247619D01*
X116523809Y-112942857D01*
X116561904Y-112866667D01*
X116638095Y-112828571D01*
X116790476Y-112828571D01*
X116866666Y-112866667D01*
X116904761Y-112942857D01*
X116904761Y-113019048D01*
X116523809Y-113095238D01*
X117209523Y-113323810D02*
X117285713Y-113361905D01*
X117438094Y-113361905D01*
X117514285Y-113323810D01*
X117552380Y-113247619D01*
X117552380Y-113209524D01*
X117514285Y-113133333D01*
X117438094Y-113095238D01*
X117323809Y-113095238D01*
X117247618Y-113057143D01*
X117209523Y-112980952D01*
X117209523Y-112942857D01*
X117247618Y-112866667D01*
X117323809Y-112828571D01*
X117438094Y-112828571D01*
X117514285Y-112866667D01*
X117895237Y-113361905D02*
X117895237Y-112828571D01*
X117895237Y-112561905D02*
X117857142Y-112600000D01*
X117895237Y-112638095D01*
X117933332Y-112600000D01*
X117895237Y-112561905D01*
X117895237Y-112638095D01*
X118619046Y-112828571D02*
X118619046Y-113476190D01*
X118580951Y-113552381D01*
X118542856Y-113590476D01*
X118466665Y-113628571D01*
X118352380Y-113628571D01*
X118276189Y-113590476D01*
X118619046Y-113323810D02*
X118542856Y-113361905D01*
X118390475Y-113361905D01*
X118314284Y-113323810D01*
X118276189Y-113285714D01*
X118238094Y-113209524D01*
X118238094Y-112980952D01*
X118276189Y-112904762D01*
X118314284Y-112866667D01*
X118390475Y-112828571D01*
X118542856Y-112828571D01*
X118619046Y-112866667D01*
X118999999Y-112828571D02*
X118999999Y-113361905D01*
X118999999Y-112904762D02*
X119038094Y-112866667D01*
X119114285Y-112828571D01*
X119228571Y-112828571D01*
X119304761Y-112866667D01*
X119342856Y-112942857D01*
X119342856Y-113361905D01*
X120257143Y-112561905D02*
X120447619Y-113361905D01*
X120600000Y-112790476D01*
X120752381Y-113361905D01*
X120942857Y-112561905D01*
X121361905Y-113361905D02*
X121285714Y-113323810D01*
X121247619Y-113285714D01*
X121209524Y-113209524D01*
X121209524Y-112980952D01*
X121247619Y-112904762D01*
X121285714Y-112866667D01*
X121361905Y-112828571D01*
X121476191Y-112828571D01*
X121552381Y-112866667D01*
X121590476Y-112904762D01*
X121628572Y-112980952D01*
X121628572Y-113209524D01*
X121590476Y-113285714D01*
X121552381Y-113323810D01*
X121476191Y-113361905D01*
X121361905Y-113361905D01*
X121971429Y-113361905D02*
X121971429Y-112828571D01*
X121971429Y-112980952D02*
X122009524Y-112904762D01*
X122047620Y-112866667D01*
X122123810Y-112828571D01*
X122200001Y-112828571D01*
X122466667Y-113361905D02*
X122466667Y-112561905D01*
X122542858Y-113057143D02*
X122771429Y-113361905D01*
X122771429Y-112828571D02*
X122466667Y-113133333D01*
X123076191Y-113323810D02*
X123152381Y-113361905D01*
X123304762Y-113361905D01*
X123380953Y-113323810D01*
X123419048Y-113247619D01*
X123419048Y-113209524D01*
X123380953Y-113133333D01*
X123304762Y-113095238D01*
X123190477Y-113095238D01*
X123114286Y-113057143D01*
X123076191Y-112980952D01*
X123076191Y-112942857D01*
X123114286Y-112866667D01*
X123190477Y-112828571D01*
X123304762Y-112828571D01*
X123380953Y-112866667D01*
X124600001Y-113666667D02*
X124561905Y-113628571D01*
X124485715Y-113514286D01*
X124447620Y-113438095D01*
X124409524Y-113323810D01*
X124371429Y-113133333D01*
X124371429Y-112980952D01*
X124409524Y-112790476D01*
X124447620Y-112676190D01*
X124485715Y-112600000D01*
X124561905Y-112485714D01*
X124600001Y-112447619D01*
X124866667Y-112638095D02*
X124904762Y-112600000D01*
X124980953Y-112561905D01*
X125171429Y-112561905D01*
X125247619Y-112600000D01*
X125285715Y-112638095D01*
X125323810Y-112714286D01*
X125323810Y-112790476D01*
X125285715Y-112904762D01*
X124828572Y-113361905D01*
X125323810Y-113361905D01*
X125819048Y-112561905D02*
X125895239Y-112561905D01*
X125971429Y-112600000D01*
X126009524Y-112638095D01*
X126047620Y-112714286D01*
X126085715Y-112866667D01*
X126085715Y-113057143D01*
X126047620Y-113209524D01*
X126009524Y-113285714D01*
X125971429Y-113323810D01*
X125895239Y-113361905D01*
X125819048Y-113361905D01*
X125742858Y-113323810D01*
X125704762Y-113285714D01*
X125666667Y-113209524D01*
X125628572Y-113057143D01*
X125628572Y-112866667D01*
X125666667Y-112714286D01*
X125704762Y-112638095D01*
X125742858Y-112600000D01*
X125819048Y-112561905D01*
X126847620Y-113361905D02*
X126390477Y-113361905D01*
X126619048Y-113361905D02*
X126619048Y-112561905D01*
X126542858Y-112676190D01*
X126466667Y-112752381D01*
X126390477Y-112790476D01*
X127304763Y-112904762D02*
X127228572Y-112866667D01*
X127190477Y-112828571D01*
X127152382Y-112752381D01*
X127152382Y-112714286D01*
X127190477Y-112638095D01*
X127228572Y-112600000D01*
X127304763Y-112561905D01*
X127457144Y-112561905D01*
X127533334Y-112600000D01*
X127571430Y-112638095D01*
X127609525Y-112714286D01*
X127609525Y-112752381D01*
X127571430Y-112828571D01*
X127533334Y-112866667D01*
X127457144Y-112904762D01*
X127304763Y-112904762D01*
X127228572Y-112942857D01*
X127190477Y-112980952D01*
X127152382Y-113057143D01*
X127152382Y-113209524D01*
X127190477Y-113285714D01*
X127228572Y-113323810D01*
X127304763Y-113361905D01*
X127457144Y-113361905D01*
X127533334Y-113323810D01*
X127571430Y-113285714D01*
X127609525Y-113209524D01*
X127609525Y-113057143D01*
X127571430Y-112980952D01*
X127533334Y-112942857D01*
X127457144Y-112904762D01*
X127876192Y-113666667D02*
X127914287Y-113628571D01*
X127990477Y-113514286D01*
X128028573Y-113438095D01*
X128066668Y-113323810D01*
X128104763Y-113133333D01*
X128104763Y-112980952D01*
X128066668Y-112790476D01*
X128028573Y-112676190D01*
X127990477Y-112600000D01*
X127914287Y-112485714D01*
X127876192Y-112447619D01*
D11*
X120000000Y-91250000D03*
X122000000Y-91250000D03*
X138250000Y-95000000D03*
X140250000Y-95000000D03*
D12*
X151765000Y-92710000D03*
D13*
X151765000Y-90710000D03*
X151765000Y-88710000D03*
X151765000Y-86710000D03*
D12*
X151765000Y-102235000D03*
D13*
X151765000Y-100235000D03*
D12*
X108585000Y-92075000D03*
D13*
X108585000Y-94075000D03*
X108585000Y-96075000D03*
X108585000Y-98075000D03*
D14*
X127000000Y-108950000D03*
X127000000Y-107050000D03*
X132250000Y-107050000D03*
X132250000Y-108950000D03*
X137750000Y-108950000D03*
X137750000Y-107050000D03*
D15*
X129419981Y-98939981D03*
X126238000Y-95758000D03*
X134016175Y-94343786D03*
X130834194Y-91161806D03*
D16*
X127775000Y-86155001D03*
X127775002Y-84455000D03*
X127775000Y-82755000D03*
X132575000Y-82754999D03*
X132574998Y-84455000D03*
X132575000Y-86155000D03*
X136919000Y-102284001D03*
X136919002Y-100584000D03*
X136919000Y-98884000D03*
X141719000Y-98883999D03*
X141718998Y-100584000D03*
X141719000Y-102284000D03*
X118600000Y-102200001D03*
X118600002Y-100500000D03*
X118600000Y-98800000D03*
X123400000Y-98799999D03*
X123399998Y-100500000D03*
X123400000Y-102200000D03*
D17*
X139750000Y-106500000D03*
X121000000Y-100000000D03*
X133500000Y-80500000D03*
X132500000Y-110500000D03*
X144000000Y-98000000D03*
X130250000Y-82750000D03*
X125250000Y-84750000D03*
X133750000Y-99250000D03*
X135750000Y-104250000D03*
X126250000Y-98750000D03*
X126750000Y-104250000D03*
D18*
X138250000Y-95000000D02*
X136919000Y-96331000D01*
X136919000Y-96331000D02*
X136919000Y-98884000D01*
X120000000Y-91250000D02*
X120000000Y-87500000D01*
X124745000Y-82755000D02*
X127775000Y-82755000D01*
X120000000Y-87500000D02*
X124745000Y-82755000D01*
X120000000Y-91250000D02*
X118600000Y-92650000D01*
X118600000Y-92650000D02*
X118600000Y-98800000D01*
X137750000Y-107050000D02*
X139200000Y-107050000D01*
X139200000Y-107050000D02*
X139750000Y-106500000D01*
X123400000Y-98799999D02*
X122200001Y-98799999D01*
X122200001Y-98799999D02*
X121000000Y-100000000D01*
X132575000Y-82754999D02*
X132575000Y-81425000D01*
X132575000Y-81425000D02*
X133500000Y-80500000D01*
X132250000Y-108950000D02*
X132250000Y-110250000D01*
X132250000Y-110250000D02*
X132500000Y-110500000D01*
X141719000Y-98883999D02*
X143116001Y-98883999D01*
X143116001Y-98883999D02*
X144000000Y-98000000D01*
X140250000Y-95000000D02*
X141719000Y-96469000D01*
X141719000Y-96469000D02*
X141719000Y-98883999D01*
X122000000Y-91250000D02*
X122000000Y-88000000D01*
X130254999Y-82754999D02*
X132575000Y-82754999D01*
X130250000Y-82750000D02*
X130254999Y-82754999D01*
X122000000Y-88000000D02*
X125250000Y-84750000D01*
X122000000Y-91250000D02*
X123400000Y-92650000D01*
X123400000Y-92650000D02*
X123400000Y-98799999D01*
X151765000Y-90710000D02*
X148460000Y-90710000D01*
X143905000Y-86155000D02*
X132575000Y-86155000D01*
X148460000Y-90710000D02*
X143905000Y-86155000D01*
X151765000Y-88710000D02*
X149460000Y-88710000D01*
X145205000Y-84455000D02*
X132574998Y-84455000D01*
X149460000Y-88710000D02*
X145205000Y-84455000D01*
X137750000Y-108950000D02*
X136450000Y-108950000D01*
X133439981Y-98939981D02*
X133750000Y-99250000D01*
X133439981Y-98939981D02*
X129419981Y-98939981D01*
X135750000Y-108250000D02*
X135750000Y-104250000D01*
X136450000Y-108950000D02*
X135750000Y-108250000D01*
X137750000Y-108950000D02*
X140550000Y-108950000D01*
X147265000Y-102235000D02*
X151765000Y-102235000D01*
X140550000Y-108950000D02*
X147265000Y-102235000D01*
X134016175Y-94343786D02*
X134016175Y-94343787D01*
X134016175Y-94343787D02*
X129419981Y-98939981D01*
X151765000Y-102235000D02*
X151730000Y-102200000D01*
X118600002Y-100500000D02*
X117000000Y-100500000D01*
X110575000Y-94075000D02*
X108585000Y-94075000D01*
X117000000Y-100500000D02*
X110575000Y-94075000D01*
X118600000Y-102200001D02*
X116700001Y-102200001D01*
X110575000Y-96075000D02*
X108585000Y-96075000D01*
X116700001Y-102200001D02*
X110575000Y-96075000D01*
X130834194Y-91161806D02*
X126238000Y-95758000D01*
X127000000Y-107050000D02*
X132250000Y-107050000D01*
X126238000Y-95758000D02*
X126250000Y-95770000D01*
X126250000Y-95770000D02*
X126250000Y-98750000D01*
X126750000Y-104250000D02*
X127000000Y-104500000D01*
X127000000Y-104500000D02*
X127000000Y-107050000D01*
X127775000Y-86155001D02*
X127775000Y-87275000D01*
X140034000Y-102284000D02*
X141719000Y-102284000D01*
X139250000Y-101500000D02*
X140034000Y-102284000D01*
X139250000Y-92000000D02*
X139250000Y-101500000D01*
X136500000Y-89250000D02*
X139250000Y-92000000D01*
X129750000Y-89250000D02*
X136500000Y-89250000D01*
X127775000Y-87275000D02*
X129750000Y-89250000D01*
X134750000Y-88250000D02*
X141250000Y-88250000D01*
X131750000Y-88250000D02*
X134750000Y-88250000D01*
X145500000Y-92500000D02*
X145500000Y-99000000D01*
X141250000Y-88250000D02*
X145500000Y-92500000D01*
X129705000Y-84455000D02*
X130250000Y-85000000D01*
X130250000Y-85000000D02*
X130250000Y-86750000D01*
X130250000Y-86750000D02*
X131750000Y-88250000D01*
X127775002Y-84455000D02*
X129705000Y-84455000D01*
X143916000Y-100584000D02*
X141718998Y-100584000D01*
X145500000Y-99000000D02*
X143916000Y-100584000D01*
X136919000Y-102284001D02*
X130965999Y-102284001D01*
X127450000Y-102200000D02*
X123400000Y-102200000D01*
X128000000Y-102750000D02*
X127450000Y-102200000D01*
X130500000Y-102750000D02*
X128000000Y-102750000D01*
X130965999Y-102284001D02*
X130500000Y-102750000D01*
X136919002Y-100584000D02*
X130916000Y-100584000D01*
X127750000Y-100500000D02*
X123399998Y-100500000D01*
X128500000Y-101250000D02*
X127750000Y-100500000D01*
X130250000Y-101250000D02*
X128500000Y-101250000D01*
X130916000Y-100584000D02*
X130250000Y-101250000D01*
D19*
G36*
X150875000Y-84000000D02*
X150884848Y-84048632D01*
X150912841Y-84089601D01*
X150954568Y-84116451D01*
X151000000Y-84125000D01*
X157875000Y-84125000D01*
X157875000Y-105875000D01*
X151000000Y-105875000D01*
X150951368Y-105884848D01*
X150910399Y-105912841D01*
X150883549Y-105954568D01*
X150875000Y-106000000D01*
X150875000Y-113850000D01*
X129125000Y-113850000D01*
X129125000Y-111750000D01*
X129116451Y-111704568D01*
X129089601Y-111662841D01*
X129048632Y-111634848D01*
X129000000Y-111625000D01*
X109125000Y-111625000D01*
X109125000Y-109283250D01*
X125717000Y-109283250D01*
X125717000Y-109425911D01*
X125813368Y-109658565D01*
X125991434Y-109836631D01*
X126224088Y-109933000D01*
X126591750Y-109933000D01*
X126750000Y-109774750D01*
X126750000Y-109125000D01*
X127250000Y-109125000D01*
X127250000Y-109774750D01*
X127408250Y-109933000D01*
X127775912Y-109933000D01*
X128008566Y-109836631D01*
X128186632Y-109658565D01*
X128283000Y-109425911D01*
X128283000Y-109283250D01*
X128124750Y-109125000D01*
X127250000Y-109125000D01*
X126750000Y-109125000D01*
X125875250Y-109125000D01*
X125717000Y-109283250D01*
X109125000Y-109283250D01*
X109125000Y-108474089D01*
X125717000Y-108474089D01*
X125717000Y-108616750D01*
X125875250Y-108775000D01*
X126750000Y-108775000D01*
X126750000Y-108125250D01*
X127250000Y-108125250D01*
X127250000Y-108775000D01*
X128124750Y-108775000D01*
X128283000Y-108616750D01*
X128283000Y-108600000D01*
X131217654Y-108600000D01*
X131217654Y-109300000D01*
X131243802Y-109438966D01*
X131325931Y-109566599D01*
X131451246Y-109652223D01*
X131600000Y-109682346D01*
X131625000Y-109682346D01*
X131625000Y-110250000D01*
X131672575Y-110489177D01*
X131808058Y-110691942D01*
X131877756Y-110761640D01*
X131927429Y-110881857D01*
X132117144Y-111071903D01*
X132365145Y-111174883D01*
X132633677Y-111175117D01*
X132881857Y-111072571D01*
X133071903Y-110882856D01*
X133174883Y-110634855D01*
X133175117Y-110366323D01*
X133072571Y-110118143D01*
X132882856Y-109928097D01*
X132875000Y-109924835D01*
X132875000Y-109682346D01*
X132900000Y-109682346D01*
X133038966Y-109656198D01*
X133166599Y-109574069D01*
X133252223Y-109448754D01*
X133282346Y-109300000D01*
X133282346Y-108600000D01*
X133256198Y-108461034D01*
X133174069Y-108333401D01*
X133048754Y-108247777D01*
X132900000Y-108217654D01*
X131600000Y-108217654D01*
X131461034Y-108243802D01*
X131333401Y-108325931D01*
X131247777Y-108451246D01*
X131217654Y-108600000D01*
X128283000Y-108600000D01*
X128283000Y-108474089D01*
X128186632Y-108241435D01*
X128008566Y-108063369D01*
X127775912Y-107967000D01*
X127408250Y-107967000D01*
X127250000Y-108125250D01*
X126750000Y-108125250D01*
X126591750Y-107967000D01*
X126224088Y-107967000D01*
X125991434Y-108063369D01*
X125813368Y-108241435D01*
X125717000Y-108474089D01*
X109125000Y-108474089D01*
X109125000Y-108000000D01*
X109115152Y-107951368D01*
X109087159Y-107910399D01*
X109045432Y-107883549D01*
X109000000Y-107875000D01*
X102125000Y-107875000D01*
X102125000Y-106700000D01*
X125967654Y-106700000D01*
X125967654Y-107400000D01*
X125993802Y-107538966D01*
X126075931Y-107666599D01*
X126201246Y-107752223D01*
X126350000Y-107782346D01*
X127650000Y-107782346D01*
X127788966Y-107756198D01*
X127915152Y-107675000D01*
X131338226Y-107675000D01*
X131451246Y-107752223D01*
X131600000Y-107782346D01*
X132900000Y-107782346D01*
X133038966Y-107756198D01*
X133166599Y-107674069D01*
X133252223Y-107548754D01*
X133282346Y-107400000D01*
X133282346Y-106700000D01*
X133256198Y-106561034D01*
X133174069Y-106433401D01*
X133048754Y-106347777D01*
X132900000Y-106317654D01*
X131600000Y-106317654D01*
X131461034Y-106343802D01*
X131334848Y-106425000D01*
X127911774Y-106425000D01*
X127798754Y-106347777D01*
X127650000Y-106317654D01*
X127625000Y-106317654D01*
X127625000Y-104500000D01*
X127601863Y-104383677D01*
X135074883Y-104383677D01*
X135125000Y-104504969D01*
X135125000Y-108250000D01*
X135172575Y-108489177D01*
X135308058Y-108691942D01*
X136008056Y-109391939D01*
X136008058Y-109391942D01*
X136210823Y-109527425D01*
X136450000Y-109575000D01*
X136838226Y-109575000D01*
X136951246Y-109652223D01*
X137100000Y-109682346D01*
X138400000Y-109682346D01*
X138538966Y-109656198D01*
X138665152Y-109575000D01*
X140550000Y-109575000D01*
X140789177Y-109527425D01*
X140991942Y-109391942D01*
X147523884Y-102860000D01*
X150537358Y-102860000D01*
X150558802Y-102973966D01*
X150640931Y-103101599D01*
X150766246Y-103187223D01*
X150915000Y-103217346D01*
X152615000Y-103217346D01*
X152753966Y-103191198D01*
X152881599Y-103109069D01*
X152967223Y-102983754D01*
X152997346Y-102835000D01*
X152997346Y-101635000D01*
X152971198Y-101496034D01*
X152889069Y-101368401D01*
X152763754Y-101282777D01*
X152615000Y-101252654D01*
X150915000Y-101252654D01*
X150776034Y-101278802D01*
X150648401Y-101360931D01*
X150562777Y-101486246D01*
X150537717Y-101610000D01*
X147265000Y-101610000D01*
X147025822Y-101657575D01*
X146823058Y-101793058D01*
X140291116Y-108325000D01*
X138661774Y-108325000D01*
X138548754Y-108247777D01*
X138400000Y-108217654D01*
X137100000Y-108217654D01*
X136961034Y-108243802D01*
X136834848Y-108325000D01*
X136708883Y-108325000D01*
X136375000Y-107991116D01*
X136375000Y-106700000D01*
X136717654Y-106700000D01*
X136717654Y-107400000D01*
X136743802Y-107538966D01*
X136825931Y-107666599D01*
X136951246Y-107752223D01*
X137100000Y-107782346D01*
X138400000Y-107782346D01*
X138538966Y-107756198D01*
X138665152Y-107675000D01*
X139200000Y-107675000D01*
X139439177Y-107627425D01*
X139641942Y-107491942D01*
X140011639Y-107122244D01*
X140131857Y-107072571D01*
X140321903Y-106882856D01*
X140424883Y-106634855D01*
X140425117Y-106366323D01*
X140322571Y-106118143D01*
X140132856Y-105928097D01*
X139884855Y-105825117D01*
X139616323Y-105824883D01*
X139368143Y-105927429D01*
X139178097Y-106117144D01*
X139127768Y-106238349D01*
X138941116Y-106425000D01*
X138661774Y-106425000D01*
X138548754Y-106347777D01*
X138400000Y-106317654D01*
X137100000Y-106317654D01*
X136961034Y-106343802D01*
X136833401Y-106425931D01*
X136747777Y-106551246D01*
X136717654Y-106700000D01*
X136375000Y-106700000D01*
X136375000Y-104504985D01*
X136424883Y-104384855D01*
X136425117Y-104116323D01*
X136322571Y-103868143D01*
X136132856Y-103678097D01*
X135884855Y-103575117D01*
X135616323Y-103574883D01*
X135368143Y-103677429D01*
X135178097Y-103867144D01*
X135075117Y-104115145D01*
X135074883Y-104383677D01*
X127601863Y-104383677D01*
X127577425Y-104260823D01*
X127577425Y-104260822D01*
X127480086Y-104115145D01*
X127441942Y-104058058D01*
X127441939Y-104058056D01*
X127372244Y-103988361D01*
X127322571Y-103868143D01*
X127132856Y-103678097D01*
X126884855Y-103575117D01*
X126616323Y-103574883D01*
X126368143Y-103677429D01*
X126178097Y-103867144D01*
X126075117Y-104115145D01*
X126074883Y-104383677D01*
X126177429Y-104631857D01*
X126367144Y-104821903D01*
X126375000Y-104825165D01*
X126375000Y-106317654D01*
X126350000Y-106317654D01*
X126211034Y-106343802D01*
X126083401Y-106425931D01*
X125997777Y-106551246D01*
X125967654Y-106700000D01*
X102125000Y-106700000D01*
X102125000Y-98075000D01*
X107336001Y-98075000D01*
X107410218Y-98448116D01*
X107621572Y-98764429D01*
X107937885Y-98975783D01*
X108311001Y-99050000D01*
X108858999Y-99050000D01*
X109232115Y-98975783D01*
X109548428Y-98764429D01*
X109759782Y-98448116D01*
X109833999Y-98075000D01*
X109759782Y-97701884D01*
X109548428Y-97385571D01*
X109232115Y-97174217D01*
X108858999Y-97100000D01*
X108311001Y-97100000D01*
X107937885Y-97174217D01*
X107621572Y-97385571D01*
X107410218Y-97701884D01*
X107336001Y-98075000D01*
X102125000Y-98075000D01*
X102125000Y-92483250D01*
X107102000Y-92483250D01*
X107102000Y-92800911D01*
X107198368Y-93033565D01*
X107376434Y-93211631D01*
X107609088Y-93308000D01*
X107737665Y-93308000D01*
X107621572Y-93385571D01*
X107410218Y-93701884D01*
X107336001Y-94075000D01*
X107410218Y-94448116D01*
X107621572Y-94764429D01*
X107937885Y-94975783D01*
X108311001Y-95050000D01*
X108858999Y-95050000D01*
X109232115Y-94975783D01*
X109548428Y-94764429D01*
X109591478Y-94700000D01*
X110316116Y-94700000D01*
X116558058Y-100941942D01*
X116760822Y-101077425D01*
X117000000Y-101125000D01*
X117231768Y-101125000D01*
X117243804Y-101188966D01*
X117325933Y-101316599D01*
X117374276Y-101349630D01*
X117333401Y-101375932D01*
X117247777Y-101501247D01*
X117232842Y-101575001D01*
X116958884Y-101575001D01*
X111016942Y-95633058D01*
X110814177Y-95497575D01*
X110575000Y-95450000D01*
X109591478Y-95450000D01*
X109548428Y-95385571D01*
X109232115Y-95174217D01*
X108858999Y-95100000D01*
X108311001Y-95100000D01*
X107937885Y-95174217D01*
X107621572Y-95385571D01*
X107410218Y-95701884D01*
X107336001Y-96075000D01*
X107410218Y-96448116D01*
X107621572Y-96764429D01*
X107937885Y-96975783D01*
X108311001Y-97050000D01*
X108858999Y-97050000D01*
X109232115Y-96975783D01*
X109548428Y-96764429D01*
X109591478Y-96700000D01*
X110316116Y-96700000D01*
X116258057Y-102641940D01*
X116258059Y-102641943D01*
X116460824Y-102777426D01*
X116700001Y-102825001D01*
X117231766Y-102825001D01*
X117243802Y-102888967D01*
X117325931Y-103016600D01*
X117451246Y-103102224D01*
X117600000Y-103132347D01*
X119600000Y-103132347D01*
X119738966Y-103106199D01*
X119866599Y-103024070D01*
X119952223Y-102898755D01*
X119982346Y-102750001D01*
X119982346Y-101650001D01*
X119956198Y-101511035D01*
X119874069Y-101383402D01*
X119825726Y-101350371D01*
X119866601Y-101324069D01*
X119952225Y-101198754D01*
X119982348Y-101050000D01*
X119982348Y-99950000D01*
X119968546Y-99876651D01*
X120136631Y-99708566D01*
X120233000Y-99475912D01*
X120233000Y-99208250D01*
X120074750Y-99050000D01*
X118850000Y-99050000D01*
X118850000Y-99070000D01*
X118350000Y-99070000D01*
X118350000Y-99050000D01*
X117125250Y-99050000D01*
X116967000Y-99208250D01*
X116967000Y-99475912D01*
X117042805Y-99658921D01*
X115507972Y-98124088D01*
X116967000Y-98124088D01*
X116967000Y-98391750D01*
X117125250Y-98550000D01*
X117386488Y-98550000D01*
X117410399Y-98587159D01*
X117451368Y-98615152D01*
X117500000Y-98625000D01*
X121491116Y-98625000D01*
X120738360Y-99377756D01*
X120618143Y-99427429D01*
X120428097Y-99617144D01*
X120325117Y-99865145D01*
X120324883Y-100133677D01*
X120427429Y-100381857D01*
X120617144Y-100571903D01*
X120865145Y-100674883D01*
X121133677Y-100675117D01*
X121381857Y-100572571D01*
X121571903Y-100382856D01*
X121622232Y-100261652D01*
X122038923Y-99844961D01*
X122017652Y-99950000D01*
X122017652Y-101050000D01*
X122043800Y-101188966D01*
X122125929Y-101316599D01*
X122174273Y-101349631D01*
X122133401Y-101375931D01*
X122047777Y-101501246D01*
X122017654Y-101650000D01*
X122017654Y-102750000D01*
X122043802Y-102888966D01*
X122125931Y-103016599D01*
X122251246Y-103102223D01*
X122400000Y-103132346D01*
X124400000Y-103132346D01*
X124538966Y-103106198D01*
X124666599Y-103024069D01*
X124752223Y-102898754D01*
X124767158Y-102825000D01*
X127191116Y-102825000D01*
X127558056Y-103191939D01*
X127558058Y-103191942D01*
X127760823Y-103327425D01*
X128000000Y-103375000D01*
X130500000Y-103375000D01*
X130739177Y-103327425D01*
X130941942Y-103191942D01*
X131224883Y-102909001D01*
X135550766Y-102909001D01*
X135562802Y-102972967D01*
X135644931Y-103100600D01*
X135770246Y-103186224D01*
X135919000Y-103216347D01*
X137919000Y-103216347D01*
X138057966Y-103190199D01*
X138185599Y-103108070D01*
X138271223Y-102982755D01*
X138301346Y-102834001D01*
X138301346Y-101734001D01*
X138275198Y-101595035D01*
X138193069Y-101467402D01*
X138144726Y-101434371D01*
X138185601Y-101408069D01*
X138271225Y-101282754D01*
X138301348Y-101134000D01*
X138301348Y-100034000D01*
X138287546Y-99960651D01*
X138455631Y-99792566D01*
X138552000Y-99559912D01*
X138552000Y-99292250D01*
X138393750Y-99134000D01*
X137169000Y-99134000D01*
X137169000Y-99154000D01*
X136669000Y-99154000D01*
X136669000Y-99134000D01*
X135444250Y-99134000D01*
X135286000Y-99292250D01*
X135286000Y-99559912D01*
X135382369Y-99792566D01*
X135548803Y-99959000D01*
X130916000Y-99959000D01*
X130676822Y-100006575D01*
X130474058Y-100142058D01*
X129991116Y-100625000D01*
X128758884Y-100625000D01*
X128191942Y-100058058D01*
X127989177Y-99922575D01*
X127750000Y-99875000D01*
X124768232Y-99875000D01*
X124756196Y-99811034D01*
X124674067Y-99683401D01*
X124625724Y-99650370D01*
X124666599Y-99624068D01*
X124752223Y-99498753D01*
X124782346Y-99349999D01*
X124782346Y-98249999D01*
X124756198Y-98111033D01*
X124674069Y-97983400D01*
X124548754Y-97897776D01*
X124400000Y-97867653D01*
X124025000Y-97867653D01*
X124025000Y-92650000D01*
X123977425Y-92410823D01*
X123841942Y-92208058D01*
X122882346Y-91248462D01*
X122882346Y-90625000D01*
X122856198Y-90486034D01*
X122774069Y-90358401D01*
X122648754Y-90272777D01*
X122625000Y-90267967D01*
X122625000Y-88258884D01*
X125511640Y-85372244D01*
X125631857Y-85322571D01*
X125821903Y-85132856D01*
X125924883Y-84884855D01*
X125925117Y-84616323D01*
X125822571Y-84368143D01*
X125632856Y-84178097D01*
X125504985Y-84125000D01*
X126392656Y-84125000D01*
X126392656Y-85005000D01*
X126418804Y-85143966D01*
X126500933Y-85271599D01*
X126549276Y-85304630D01*
X126508401Y-85330932D01*
X126422777Y-85456247D01*
X126392654Y-85605001D01*
X126392654Y-86705001D01*
X126418802Y-86843967D01*
X126500931Y-86971600D01*
X126626246Y-87057224D01*
X126775000Y-87087347D01*
X127150000Y-87087347D01*
X127150000Y-87275000D01*
X127197575Y-87514177D01*
X127333058Y-87716942D01*
X129308058Y-89691942D01*
X129510823Y-89827425D01*
X129750000Y-89875001D01*
X129750005Y-89875000D01*
X130347867Y-89875000D01*
X130056337Y-89995458D01*
X129669205Y-90381914D01*
X129459433Y-90887102D01*
X129458956Y-91434111D01*
X129523002Y-91589114D01*
X126665451Y-94446665D01*
X126512704Y-94383239D01*
X125965695Y-94382762D01*
X125460143Y-94591652D01*
X125073011Y-94978108D01*
X124863239Y-95483296D01*
X124862762Y-96030305D01*
X125071652Y-96535857D01*
X125458108Y-96922989D01*
X125625000Y-96992288D01*
X125625000Y-98495015D01*
X125575117Y-98615145D01*
X125574883Y-98883677D01*
X125677429Y-99131857D01*
X125867144Y-99321903D01*
X126115145Y-99424883D01*
X126383677Y-99425117D01*
X126631857Y-99322571D01*
X126742334Y-99212286D01*
X128044743Y-99212286D01*
X128253633Y-99717838D01*
X128640089Y-100104970D01*
X129145277Y-100314742D01*
X129692286Y-100315219D01*
X130197838Y-100106329D01*
X130584970Y-99719873D01*
X130649287Y-99564981D01*
X133149796Y-99564981D01*
X133177429Y-99631857D01*
X133367144Y-99821903D01*
X133615145Y-99924883D01*
X133883677Y-99925117D01*
X134131857Y-99822571D01*
X134321903Y-99632856D01*
X134424883Y-99384855D01*
X134425117Y-99116323D01*
X134322571Y-98868143D01*
X134132856Y-98678097D01*
X134011652Y-98627768D01*
X133881923Y-98498039D01*
X133679158Y-98362556D01*
X133439981Y-98314981D01*
X130928865Y-98314981D01*
X133588725Y-95655121D01*
X133741471Y-95718547D01*
X134288480Y-95719024D01*
X134794032Y-95510134D01*
X135181164Y-95123678D01*
X135390936Y-94618490D01*
X135391413Y-94071481D01*
X135182523Y-93565929D01*
X134796067Y-93178797D01*
X134290879Y-92969025D01*
X133743870Y-92968548D01*
X133238318Y-93177438D01*
X132851186Y-93563894D01*
X132641414Y-94069082D01*
X132640937Y-94616091D01*
X132704983Y-94771095D01*
X129847432Y-97628646D01*
X129694685Y-97565220D01*
X129147676Y-97564743D01*
X128642124Y-97773633D01*
X128254992Y-98160089D01*
X128045220Y-98665277D01*
X128044743Y-99212286D01*
X126742334Y-99212286D01*
X126821903Y-99132856D01*
X126924883Y-98884855D01*
X126925117Y-98616323D01*
X126875000Y-98495031D01*
X126875000Y-96982549D01*
X127015857Y-96924348D01*
X127402989Y-96537892D01*
X127612761Y-96032704D01*
X127613238Y-95485695D01*
X127549192Y-95330692D01*
X130406743Y-92473141D01*
X130559490Y-92536567D01*
X131106499Y-92537044D01*
X131612051Y-92328154D01*
X131999183Y-91941698D01*
X132208955Y-91436510D01*
X132209432Y-90889501D01*
X132000542Y-90383949D01*
X131614086Y-89996817D01*
X131320718Y-89875000D01*
X136241116Y-89875000D01*
X138625000Y-92258884D01*
X138625000Y-93775250D01*
X138525250Y-93875000D01*
X137974750Y-93875000D01*
X137841750Y-93742000D01*
X137624089Y-93742000D01*
X137391435Y-93838368D01*
X137354803Y-93875000D01*
X136000000Y-93875000D01*
X135954568Y-93883549D01*
X135912841Y-93910399D01*
X135884848Y-93951368D01*
X135875000Y-94000000D01*
X135875000Y-97701000D01*
X135793089Y-97701000D01*
X135560435Y-97797368D01*
X135382369Y-97975434D01*
X135286000Y-98208088D01*
X135286000Y-98475750D01*
X135444250Y-98634000D01*
X136669000Y-98634000D01*
X136669000Y-98625000D01*
X137169000Y-98625000D01*
X137169000Y-98634000D01*
X138393750Y-98634000D01*
X138402750Y-98625000D01*
X138625000Y-98625000D01*
X138625000Y-101500000D01*
X138672575Y-101739177D01*
X138808058Y-101941942D01*
X139592056Y-102725939D01*
X139592058Y-102725942D01*
X139713606Y-102807158D01*
X139794822Y-102861425D01*
X140034000Y-102909000D01*
X140350766Y-102909000D01*
X140362802Y-102972966D01*
X140444931Y-103100599D01*
X140570246Y-103186223D01*
X140719000Y-103216346D01*
X142719000Y-103216346D01*
X142857966Y-103190198D01*
X142985599Y-103108069D01*
X143071223Y-102982754D01*
X143101346Y-102834000D01*
X143101346Y-101734000D01*
X143075198Y-101595034D01*
X142993069Y-101467401D01*
X142944725Y-101434369D01*
X142985597Y-101408069D01*
X143071221Y-101282754D01*
X143086156Y-101209000D01*
X143916000Y-101209000D01*
X144155177Y-101161425D01*
X144357942Y-101025942D01*
X145148884Y-100235000D01*
X150516001Y-100235000D01*
X150590218Y-100608116D01*
X150801572Y-100924429D01*
X151117885Y-101135783D01*
X151491001Y-101210000D01*
X152038999Y-101210000D01*
X152412115Y-101135783D01*
X152728428Y-100924429D01*
X152939782Y-100608116D01*
X153013999Y-100235000D01*
X152939782Y-99861884D01*
X152728428Y-99545571D01*
X152412115Y-99334217D01*
X152038999Y-99260000D01*
X151491001Y-99260000D01*
X151117885Y-99334217D01*
X150801572Y-99545571D01*
X150590218Y-99861884D01*
X150516001Y-100235000D01*
X145148884Y-100235000D01*
X145941942Y-99441942D01*
X146077425Y-99239178D01*
X146125000Y-99000000D01*
X146125000Y-92500005D01*
X146125001Y-92500000D01*
X146077425Y-92260823D01*
X146054974Y-92227223D01*
X145976649Y-92110000D01*
X150532654Y-92110000D01*
X150532654Y-93310000D01*
X150558802Y-93448966D01*
X150640931Y-93576599D01*
X150766246Y-93662223D01*
X150915000Y-93692346D01*
X152615000Y-93692346D01*
X152753966Y-93666198D01*
X152881599Y-93584069D01*
X152967223Y-93458754D01*
X152997346Y-93310000D01*
X152997346Y-92110000D01*
X152971198Y-91971034D01*
X152889069Y-91843401D01*
X152763754Y-91757777D01*
X152615000Y-91727654D01*
X150915000Y-91727654D01*
X150776034Y-91753802D01*
X150648401Y-91835931D01*
X150562777Y-91961246D01*
X150532654Y-92110000D01*
X145976649Y-92110000D01*
X145941942Y-92058058D01*
X145941939Y-92058056D01*
X141691942Y-87808058D01*
X141489177Y-87672575D01*
X141250000Y-87625000D01*
X132008883Y-87625000D01*
X131444880Y-87060996D01*
X131575000Y-87087346D01*
X133575000Y-87087346D01*
X133713966Y-87061198D01*
X133841599Y-86979069D01*
X133927223Y-86853754D01*
X133942158Y-86780000D01*
X143646116Y-86780000D01*
X148018058Y-91151942D01*
X148220823Y-91287425D01*
X148460000Y-91335001D01*
X148460005Y-91335000D01*
X150758522Y-91335000D01*
X150801572Y-91399429D01*
X151117885Y-91610783D01*
X151491001Y-91685000D01*
X152038999Y-91685000D01*
X152412115Y-91610783D01*
X152728428Y-91399429D01*
X152939782Y-91083116D01*
X153013999Y-90710000D01*
X152939782Y-90336884D01*
X152728428Y-90020571D01*
X152412115Y-89809217D01*
X152038999Y-89735000D01*
X151491001Y-89735000D01*
X151117885Y-89809217D01*
X150801572Y-90020571D01*
X150758522Y-90085000D01*
X148718884Y-90085000D01*
X144346942Y-85713058D01*
X144144177Y-85577575D01*
X143905000Y-85530000D01*
X133943234Y-85530000D01*
X133931198Y-85466034D01*
X133849069Y-85338401D01*
X133800725Y-85305369D01*
X133841597Y-85279069D01*
X133927221Y-85153754D01*
X133942156Y-85080000D01*
X144946116Y-85080000D01*
X149018058Y-89151942D01*
X149220823Y-89287425D01*
X149460000Y-89335001D01*
X149460005Y-89335000D01*
X150758522Y-89335000D01*
X150801572Y-89399429D01*
X151117885Y-89610783D01*
X151491001Y-89685000D01*
X152038999Y-89685000D01*
X152412115Y-89610783D01*
X152728428Y-89399429D01*
X152939782Y-89083116D01*
X153013999Y-88710000D01*
X152939782Y-88336884D01*
X152728428Y-88020571D01*
X152453825Y-87837087D01*
X152659241Y-87761305D01*
X153012518Y-87434739D01*
X153168415Y-87145799D01*
X153060269Y-86960000D01*
X152015000Y-86960000D01*
X152015000Y-86980000D01*
X151515000Y-86980000D01*
X151515000Y-86960000D01*
X150469731Y-86960000D01*
X150361585Y-87145799D01*
X150517482Y-87434739D01*
X150870759Y-87761305D01*
X151076175Y-87837087D01*
X150801572Y-88020571D01*
X150758522Y-88085000D01*
X149718884Y-88085000D01*
X147908085Y-86274201D01*
X150361585Y-86274201D01*
X150469731Y-86460000D01*
X151515000Y-86460000D01*
X151515000Y-85635250D01*
X152015000Y-85635250D01*
X152015000Y-86460000D01*
X153060269Y-86460000D01*
X153168415Y-86274201D01*
X153012518Y-85985261D01*
X152659241Y-85658695D01*
X152207884Y-85492180D01*
X152015000Y-85635250D01*
X151515000Y-85635250D01*
X151322116Y-85492180D01*
X150870759Y-85658695D01*
X150517482Y-85985261D01*
X150361585Y-86274201D01*
X147908085Y-86274201D01*
X145646942Y-84013058D01*
X145444177Y-83877575D01*
X145205000Y-83830000D01*
X133943232Y-83830000D01*
X133931196Y-83766034D01*
X133849067Y-83638401D01*
X133800724Y-83605370D01*
X133841599Y-83579068D01*
X133927223Y-83453753D01*
X133957346Y-83304999D01*
X133957346Y-82204999D01*
X133931198Y-82066033D01*
X133849069Y-81938400D01*
X133723754Y-81852776D01*
X133575000Y-81822653D01*
X133200000Y-81822653D01*
X133200000Y-81683884D01*
X133761639Y-81122244D01*
X133881857Y-81072571D01*
X134071903Y-80882856D01*
X134174883Y-80634855D01*
X134175117Y-80366323D01*
X134072571Y-80118143D01*
X133882856Y-79928097D01*
X133634855Y-79825117D01*
X133366323Y-79824883D01*
X133118143Y-79927429D01*
X132928097Y-80117144D01*
X132877768Y-80238349D01*
X132133058Y-80983058D01*
X131997575Y-81185823D01*
X131950000Y-81425000D01*
X131950000Y-81822653D01*
X131575000Y-81822653D01*
X131436034Y-81848801D01*
X131308401Y-81930930D01*
X131222777Y-82056245D01*
X131207842Y-82129999D01*
X130517024Y-82129999D01*
X130384855Y-82075117D01*
X130116323Y-82074883D01*
X129868143Y-82177429D01*
X129678097Y-82367144D01*
X129575117Y-82615145D01*
X129574883Y-82883677D01*
X129677429Y-83131857D01*
X129867144Y-83321903D01*
X130115145Y-83424883D01*
X130383677Y-83425117D01*
X130492871Y-83379999D01*
X131206766Y-83379999D01*
X131218802Y-83443965D01*
X131300931Y-83571598D01*
X131349274Y-83604629D01*
X131308399Y-83630931D01*
X131222775Y-83756246D01*
X131192652Y-83905000D01*
X131192652Y-85005000D01*
X131218800Y-85143966D01*
X131300929Y-85271599D01*
X131349273Y-85304631D01*
X131308401Y-85330931D01*
X131222777Y-85456246D01*
X131192654Y-85605000D01*
X131192654Y-86705000D01*
X131216705Y-86832821D01*
X130875000Y-86491116D01*
X130875000Y-85000000D01*
X130827425Y-84760823D01*
X130827425Y-84760822D01*
X130730086Y-84615145D01*
X130691942Y-84558058D01*
X130691939Y-84558056D01*
X130146942Y-84013058D01*
X129944177Y-83877575D01*
X129705000Y-83830000D01*
X129145197Y-83830000D01*
X129311631Y-83663566D01*
X129408000Y-83430912D01*
X129408000Y-83163250D01*
X129249750Y-83005000D01*
X129125000Y-83005000D01*
X129125000Y-82505000D01*
X129249750Y-82505000D01*
X129408000Y-82346750D01*
X129408000Y-82079088D01*
X129311631Y-81846434D01*
X129133565Y-81668368D01*
X129125000Y-81664820D01*
X129125000Y-81500000D01*
X129116451Y-81454568D01*
X129089601Y-81412841D01*
X129048632Y-81384848D01*
X129000000Y-81375000D01*
X124500000Y-81375000D01*
X124452963Y-81384187D01*
X124411612Y-81411612D01*
X117411612Y-88411612D01*
X117384848Y-88451368D01*
X117375000Y-88500000D01*
X117375000Y-97658044D01*
X117241435Y-97713368D01*
X117063369Y-97891434D01*
X116967000Y-98124088D01*
X115507972Y-98124088D01*
X111016942Y-93633058D01*
X110814177Y-93497575D01*
X110575000Y-93450000D01*
X109591478Y-93450000D01*
X109548428Y-93385571D01*
X109432335Y-93308000D01*
X109560912Y-93308000D01*
X109793566Y-93211631D01*
X109971632Y-93033565D01*
X110068000Y-92800911D01*
X110068000Y-92483250D01*
X109909750Y-92325000D01*
X108835000Y-92325000D01*
X108835000Y-92345000D01*
X108335000Y-92345000D01*
X108335000Y-92325000D01*
X107260250Y-92325000D01*
X107102000Y-92483250D01*
X102125000Y-92483250D01*
X102125000Y-91349089D01*
X107102000Y-91349089D01*
X107102000Y-91666750D01*
X107260250Y-91825000D01*
X108335000Y-91825000D01*
X108335000Y-91000250D01*
X108835000Y-91000250D01*
X108835000Y-91825000D01*
X109909750Y-91825000D01*
X110068000Y-91666750D01*
X110068000Y-91349089D01*
X109971632Y-91116435D01*
X109793566Y-90938369D01*
X109560912Y-90842000D01*
X108993250Y-90842000D01*
X108835000Y-91000250D01*
X108335000Y-91000250D01*
X108176750Y-90842000D01*
X107609088Y-90842000D01*
X107376434Y-90938369D01*
X107198368Y-91116435D01*
X107102000Y-91349089D01*
X102125000Y-91349089D01*
X102125000Y-84125000D01*
X110000000Y-84125000D01*
X110048632Y-84115152D01*
X110089601Y-84087159D01*
X110116451Y-84045432D01*
X110125000Y-84000000D01*
X110125000Y-77125000D01*
X150875000Y-77125000D01*
X150875000Y-84000000D01*
X150875000Y-84000000D01*
G37*
X150875000Y-84000000D02*
X150884848Y-84048632D01*
X150912841Y-84089601D01*
X150954568Y-84116451D01*
X151000000Y-84125000D01*
X157875000Y-84125000D01*
X157875000Y-105875000D01*
X151000000Y-105875000D01*
X150951368Y-105884848D01*
X150910399Y-105912841D01*
X150883549Y-105954568D01*
X150875000Y-106000000D01*
X150875000Y-113850000D01*
X129125000Y-113850000D01*
X129125000Y-111750000D01*
X129116451Y-111704568D01*
X129089601Y-111662841D01*
X129048632Y-111634848D01*
X129000000Y-111625000D01*
X109125000Y-111625000D01*
X109125000Y-109283250D01*
X125717000Y-109283250D01*
X125717000Y-109425911D01*
X125813368Y-109658565D01*
X125991434Y-109836631D01*
X126224088Y-109933000D01*
X126591750Y-109933000D01*
X126750000Y-109774750D01*
X126750000Y-109125000D01*
X127250000Y-109125000D01*
X127250000Y-109774750D01*
X127408250Y-109933000D01*
X127775912Y-109933000D01*
X128008566Y-109836631D01*
X128186632Y-109658565D01*
X128283000Y-109425911D01*
X128283000Y-109283250D01*
X128124750Y-109125000D01*
X127250000Y-109125000D01*
X126750000Y-109125000D01*
X125875250Y-109125000D01*
X125717000Y-109283250D01*
X109125000Y-109283250D01*
X109125000Y-108474089D01*
X125717000Y-108474089D01*
X125717000Y-108616750D01*
X125875250Y-108775000D01*
X126750000Y-108775000D01*
X126750000Y-108125250D01*
X127250000Y-108125250D01*
X127250000Y-108775000D01*
X128124750Y-108775000D01*
X128283000Y-108616750D01*
X128283000Y-108600000D01*
X131217654Y-108600000D01*
X131217654Y-109300000D01*
X131243802Y-109438966D01*
X131325931Y-109566599D01*
X131451246Y-109652223D01*
X131600000Y-109682346D01*
X131625000Y-109682346D01*
X131625000Y-110250000D01*
X131672575Y-110489177D01*
X131808058Y-110691942D01*
X131877756Y-110761640D01*
X131927429Y-110881857D01*
X132117144Y-111071903D01*
X132365145Y-111174883D01*
X132633677Y-111175117D01*
X132881857Y-111072571D01*
X133071903Y-110882856D01*
X133174883Y-110634855D01*
X133175117Y-110366323D01*
X133072571Y-110118143D01*
X132882856Y-109928097D01*
X132875000Y-109924835D01*
X132875000Y-109682346D01*
X132900000Y-109682346D01*
X133038966Y-109656198D01*
X133166599Y-109574069D01*
X133252223Y-109448754D01*
X133282346Y-109300000D01*
X133282346Y-108600000D01*
X133256198Y-108461034D01*
X133174069Y-108333401D01*
X133048754Y-108247777D01*
X132900000Y-108217654D01*
X131600000Y-108217654D01*
X131461034Y-108243802D01*
X131333401Y-108325931D01*
X131247777Y-108451246D01*
X131217654Y-108600000D01*
X128283000Y-108600000D01*
X128283000Y-108474089D01*
X128186632Y-108241435D01*
X128008566Y-108063369D01*
X127775912Y-107967000D01*
X127408250Y-107967000D01*
X127250000Y-108125250D01*
X126750000Y-108125250D01*
X126591750Y-107967000D01*
X126224088Y-107967000D01*
X125991434Y-108063369D01*
X125813368Y-108241435D01*
X125717000Y-108474089D01*
X109125000Y-108474089D01*
X109125000Y-108000000D01*
X109115152Y-107951368D01*
X109087159Y-107910399D01*
X109045432Y-107883549D01*
X109000000Y-107875000D01*
X102125000Y-107875000D01*
X102125000Y-106700000D01*
X125967654Y-106700000D01*
X125967654Y-107400000D01*
X125993802Y-107538966D01*
X126075931Y-107666599D01*
X126201246Y-107752223D01*
X126350000Y-107782346D01*
X127650000Y-107782346D01*
X127788966Y-107756198D01*
X127915152Y-107675000D01*
X131338226Y-107675000D01*
X131451246Y-107752223D01*
X131600000Y-107782346D01*
X132900000Y-107782346D01*
X133038966Y-107756198D01*
X133166599Y-107674069D01*
X133252223Y-107548754D01*
X133282346Y-107400000D01*
X133282346Y-106700000D01*
X133256198Y-106561034D01*
X133174069Y-106433401D01*
X133048754Y-106347777D01*
X132900000Y-106317654D01*
X131600000Y-106317654D01*
X131461034Y-106343802D01*
X131334848Y-106425000D01*
X127911774Y-106425000D01*
X127798754Y-106347777D01*
X127650000Y-106317654D01*
X127625000Y-106317654D01*
X127625000Y-104500000D01*
X127601863Y-104383677D01*
X135074883Y-104383677D01*
X135125000Y-104504969D01*
X135125000Y-108250000D01*
X135172575Y-108489177D01*
X135308058Y-108691942D01*
X136008056Y-109391939D01*
X136008058Y-109391942D01*
X136210823Y-109527425D01*
X136450000Y-109575000D01*
X136838226Y-109575000D01*
X136951246Y-109652223D01*
X137100000Y-109682346D01*
X138400000Y-109682346D01*
X138538966Y-109656198D01*
X138665152Y-109575000D01*
X140550000Y-109575000D01*
X140789177Y-109527425D01*
X140991942Y-109391942D01*
X147523884Y-102860000D01*
X150537358Y-102860000D01*
X150558802Y-102973966D01*
X150640931Y-103101599D01*
X150766246Y-103187223D01*
X150915000Y-103217346D01*
X152615000Y-103217346D01*
X152753966Y-103191198D01*
X152881599Y-103109069D01*
X152967223Y-102983754D01*
X152997346Y-102835000D01*
X152997346Y-101635000D01*
X152971198Y-101496034D01*
X152889069Y-101368401D01*
X152763754Y-101282777D01*
X152615000Y-101252654D01*
X150915000Y-101252654D01*
X150776034Y-101278802D01*
X150648401Y-101360931D01*
X150562777Y-101486246D01*
X150537717Y-101610000D01*
X147265000Y-101610000D01*
X147025822Y-101657575D01*
X146823058Y-101793058D01*
X140291116Y-108325000D01*
X138661774Y-108325000D01*
X138548754Y-108247777D01*
X138400000Y-108217654D01*
X137100000Y-108217654D01*
X136961034Y-108243802D01*
X136834848Y-108325000D01*
X136708883Y-108325000D01*
X136375000Y-107991116D01*
X136375000Y-106700000D01*
X136717654Y-106700000D01*
X136717654Y-107400000D01*
X136743802Y-107538966D01*
X136825931Y-107666599D01*
X136951246Y-107752223D01*
X137100000Y-107782346D01*
X138400000Y-107782346D01*
X138538966Y-107756198D01*
X138665152Y-107675000D01*
X139200000Y-107675000D01*
X139439177Y-107627425D01*
X139641942Y-107491942D01*
X140011639Y-107122244D01*
X140131857Y-107072571D01*
X140321903Y-106882856D01*
X140424883Y-106634855D01*
X140425117Y-106366323D01*
X140322571Y-106118143D01*
X140132856Y-105928097D01*
X139884855Y-105825117D01*
X139616323Y-105824883D01*
X139368143Y-105927429D01*
X139178097Y-106117144D01*
X139127768Y-106238349D01*
X138941116Y-106425000D01*
X138661774Y-106425000D01*
X138548754Y-106347777D01*
X138400000Y-106317654D01*
X137100000Y-106317654D01*
X136961034Y-106343802D01*
X136833401Y-106425931D01*
X136747777Y-106551246D01*
X136717654Y-106700000D01*
X136375000Y-106700000D01*
X136375000Y-104504985D01*
X136424883Y-104384855D01*
X136425117Y-104116323D01*
X136322571Y-103868143D01*
X136132856Y-103678097D01*
X135884855Y-103575117D01*
X135616323Y-103574883D01*
X135368143Y-103677429D01*
X135178097Y-103867144D01*
X135075117Y-104115145D01*
X135074883Y-104383677D01*
X127601863Y-104383677D01*
X127577425Y-104260823D01*
X127577425Y-104260822D01*
X127480086Y-104115145D01*
X127441942Y-104058058D01*
X127441939Y-104058056D01*
X127372244Y-103988361D01*
X127322571Y-103868143D01*
X127132856Y-103678097D01*
X126884855Y-103575117D01*
X126616323Y-103574883D01*
X126368143Y-103677429D01*
X126178097Y-103867144D01*
X126075117Y-104115145D01*
X126074883Y-104383677D01*
X126177429Y-104631857D01*
X126367144Y-104821903D01*
X126375000Y-104825165D01*
X126375000Y-106317654D01*
X126350000Y-106317654D01*
X126211034Y-106343802D01*
X126083401Y-106425931D01*
X125997777Y-106551246D01*
X125967654Y-106700000D01*
X102125000Y-106700000D01*
X102125000Y-98075000D01*
X107336001Y-98075000D01*
X107410218Y-98448116D01*
X107621572Y-98764429D01*
X107937885Y-98975783D01*
X108311001Y-99050000D01*
X108858999Y-99050000D01*
X109232115Y-98975783D01*
X109548428Y-98764429D01*
X109759782Y-98448116D01*
X109833999Y-98075000D01*
X109759782Y-97701884D01*
X109548428Y-97385571D01*
X109232115Y-97174217D01*
X108858999Y-97100000D01*
X108311001Y-97100000D01*
X107937885Y-97174217D01*
X107621572Y-97385571D01*
X107410218Y-97701884D01*
X107336001Y-98075000D01*
X102125000Y-98075000D01*
X102125000Y-92483250D01*
X107102000Y-92483250D01*
X107102000Y-92800911D01*
X107198368Y-93033565D01*
X107376434Y-93211631D01*
X107609088Y-93308000D01*
X107737665Y-93308000D01*
X107621572Y-93385571D01*
X107410218Y-93701884D01*
X107336001Y-94075000D01*
X107410218Y-94448116D01*
X107621572Y-94764429D01*
X107937885Y-94975783D01*
X108311001Y-95050000D01*
X108858999Y-95050000D01*
X109232115Y-94975783D01*
X109548428Y-94764429D01*
X109591478Y-94700000D01*
X110316116Y-94700000D01*
X116558058Y-100941942D01*
X116760822Y-101077425D01*
X117000000Y-101125000D01*
X117231768Y-101125000D01*
X117243804Y-101188966D01*
X117325933Y-101316599D01*
X117374276Y-101349630D01*
X117333401Y-101375932D01*
X117247777Y-101501247D01*
X117232842Y-101575001D01*
X116958884Y-101575001D01*
X111016942Y-95633058D01*
X110814177Y-95497575D01*
X110575000Y-95450000D01*
X109591478Y-95450000D01*
X109548428Y-95385571D01*
X109232115Y-95174217D01*
X108858999Y-95100000D01*
X108311001Y-95100000D01*
X107937885Y-95174217D01*
X107621572Y-95385571D01*
X107410218Y-95701884D01*
X107336001Y-96075000D01*
X107410218Y-96448116D01*
X107621572Y-96764429D01*
X107937885Y-96975783D01*
X108311001Y-97050000D01*
X108858999Y-97050000D01*
X109232115Y-96975783D01*
X109548428Y-96764429D01*
X109591478Y-96700000D01*
X110316116Y-96700000D01*
X116258057Y-102641940D01*
X116258059Y-102641943D01*
X116460824Y-102777426D01*
X116700001Y-102825001D01*
X117231766Y-102825001D01*
X117243802Y-102888967D01*
X117325931Y-103016600D01*
X117451246Y-103102224D01*
X117600000Y-103132347D01*
X119600000Y-103132347D01*
X119738966Y-103106199D01*
X119866599Y-103024070D01*
X119952223Y-102898755D01*
X119982346Y-102750001D01*
X119982346Y-101650001D01*
X119956198Y-101511035D01*
X119874069Y-101383402D01*
X119825726Y-101350371D01*
X119866601Y-101324069D01*
X119952225Y-101198754D01*
X119982348Y-101050000D01*
X119982348Y-99950000D01*
X119968546Y-99876651D01*
X120136631Y-99708566D01*
X120233000Y-99475912D01*
X120233000Y-99208250D01*
X120074750Y-99050000D01*
X118850000Y-99050000D01*
X118850000Y-99070000D01*
X118350000Y-99070000D01*
X118350000Y-99050000D01*
X117125250Y-99050000D01*
X116967000Y-99208250D01*
X116967000Y-99475912D01*
X117042805Y-99658921D01*
X115507972Y-98124088D01*
X116967000Y-98124088D01*
X116967000Y-98391750D01*
X117125250Y-98550000D01*
X117386488Y-98550000D01*
X117410399Y-98587159D01*
X117451368Y-98615152D01*
X117500000Y-98625000D01*
X121491116Y-98625000D01*
X120738360Y-99377756D01*
X120618143Y-99427429D01*
X120428097Y-99617144D01*
X120325117Y-99865145D01*
X120324883Y-100133677D01*
X120427429Y-100381857D01*
X120617144Y-100571903D01*
X120865145Y-100674883D01*
X121133677Y-100675117D01*
X121381857Y-100572571D01*
X121571903Y-100382856D01*
X121622232Y-100261652D01*
X122038923Y-99844961D01*
X122017652Y-99950000D01*
X122017652Y-101050000D01*
X122043800Y-101188966D01*
X122125929Y-101316599D01*
X122174273Y-101349631D01*
X122133401Y-101375931D01*
X122047777Y-101501246D01*
X122017654Y-101650000D01*
X122017654Y-102750000D01*
X122043802Y-102888966D01*
X122125931Y-103016599D01*
X122251246Y-103102223D01*
X122400000Y-103132346D01*
X124400000Y-103132346D01*
X124538966Y-103106198D01*
X124666599Y-103024069D01*
X124752223Y-102898754D01*
X124767158Y-102825000D01*
X127191116Y-102825000D01*
X127558056Y-103191939D01*
X127558058Y-103191942D01*
X127760823Y-103327425D01*
X128000000Y-103375000D01*
X130500000Y-103375000D01*
X130739177Y-103327425D01*
X130941942Y-103191942D01*
X131224883Y-102909001D01*
X135550766Y-102909001D01*
X135562802Y-102972967D01*
X135644931Y-103100600D01*
X135770246Y-103186224D01*
X135919000Y-103216347D01*
X137919000Y-103216347D01*
X138057966Y-103190199D01*
X138185599Y-103108070D01*
X138271223Y-102982755D01*
X138301346Y-102834001D01*
X138301346Y-101734001D01*
X138275198Y-101595035D01*
X138193069Y-101467402D01*
X138144726Y-101434371D01*
X138185601Y-101408069D01*
X138271225Y-101282754D01*
X138301348Y-101134000D01*
X138301348Y-100034000D01*
X138287546Y-99960651D01*
X138455631Y-99792566D01*
X138552000Y-99559912D01*
X138552000Y-99292250D01*
X138393750Y-99134000D01*
X137169000Y-99134000D01*
X137169000Y-99154000D01*
X136669000Y-99154000D01*
X136669000Y-99134000D01*
X135444250Y-99134000D01*
X135286000Y-99292250D01*
X135286000Y-99559912D01*
X135382369Y-99792566D01*
X135548803Y-99959000D01*
X130916000Y-99959000D01*
X130676822Y-100006575D01*
X130474058Y-100142058D01*
X129991116Y-100625000D01*
X128758884Y-100625000D01*
X128191942Y-100058058D01*
X127989177Y-99922575D01*
X127750000Y-99875000D01*
X124768232Y-99875000D01*
X124756196Y-99811034D01*
X124674067Y-99683401D01*
X124625724Y-99650370D01*
X124666599Y-99624068D01*
X124752223Y-99498753D01*
X124782346Y-99349999D01*
X124782346Y-98249999D01*
X124756198Y-98111033D01*
X124674069Y-97983400D01*
X124548754Y-97897776D01*
X124400000Y-97867653D01*
X124025000Y-97867653D01*
X124025000Y-92650000D01*
X123977425Y-92410823D01*
X123841942Y-92208058D01*
X122882346Y-91248462D01*
X122882346Y-90625000D01*
X122856198Y-90486034D01*
X122774069Y-90358401D01*
X122648754Y-90272777D01*
X122625000Y-90267967D01*
X122625000Y-88258884D01*
X125511640Y-85372244D01*
X125631857Y-85322571D01*
X125821903Y-85132856D01*
X125924883Y-84884855D01*
X125925117Y-84616323D01*
X125822571Y-84368143D01*
X125632856Y-84178097D01*
X125504985Y-84125000D01*
X126392656Y-84125000D01*
X126392656Y-85005000D01*
X126418804Y-85143966D01*
X126500933Y-85271599D01*
X126549276Y-85304630D01*
X126508401Y-85330932D01*
X126422777Y-85456247D01*
X126392654Y-85605001D01*
X126392654Y-86705001D01*
X126418802Y-86843967D01*
X126500931Y-86971600D01*
X126626246Y-87057224D01*
X126775000Y-87087347D01*
X127150000Y-87087347D01*
X127150000Y-87275000D01*
X127197575Y-87514177D01*
X127333058Y-87716942D01*
X129308058Y-89691942D01*
X129510823Y-89827425D01*
X129750000Y-89875001D01*
X129750005Y-89875000D01*
X130347867Y-89875000D01*
X130056337Y-89995458D01*
X129669205Y-90381914D01*
X129459433Y-90887102D01*
X129458956Y-91434111D01*
X129523002Y-91589114D01*
X126665451Y-94446665D01*
X126512704Y-94383239D01*
X125965695Y-94382762D01*
X125460143Y-94591652D01*
X125073011Y-94978108D01*
X124863239Y-95483296D01*
X124862762Y-96030305D01*
X125071652Y-96535857D01*
X125458108Y-96922989D01*
X125625000Y-96992288D01*
X125625000Y-98495015D01*
X125575117Y-98615145D01*
X125574883Y-98883677D01*
X125677429Y-99131857D01*
X125867144Y-99321903D01*
X126115145Y-99424883D01*
X126383677Y-99425117D01*
X126631857Y-99322571D01*
X126742334Y-99212286D01*
X128044743Y-99212286D01*
X128253633Y-99717838D01*
X128640089Y-100104970D01*
X129145277Y-100314742D01*
X129692286Y-100315219D01*
X130197838Y-100106329D01*
X130584970Y-99719873D01*
X130649287Y-99564981D01*
X133149796Y-99564981D01*
X133177429Y-99631857D01*
X133367144Y-99821903D01*
X133615145Y-99924883D01*
X133883677Y-99925117D01*
X134131857Y-99822571D01*
X134321903Y-99632856D01*
X134424883Y-99384855D01*
X134425117Y-99116323D01*
X134322571Y-98868143D01*
X134132856Y-98678097D01*
X134011652Y-98627768D01*
X133881923Y-98498039D01*
X133679158Y-98362556D01*
X133439981Y-98314981D01*
X130928865Y-98314981D01*
X133588725Y-95655121D01*
X133741471Y-95718547D01*
X134288480Y-95719024D01*
X134794032Y-95510134D01*
X135181164Y-95123678D01*
X135390936Y-94618490D01*
X135391413Y-94071481D01*
X135182523Y-93565929D01*
X134796067Y-93178797D01*
X134290879Y-92969025D01*
X133743870Y-92968548D01*
X133238318Y-93177438D01*
X132851186Y-93563894D01*
X132641414Y-94069082D01*
X132640937Y-94616091D01*
X132704983Y-94771095D01*
X129847432Y-97628646D01*
X129694685Y-97565220D01*
X129147676Y-97564743D01*
X128642124Y-97773633D01*
X128254992Y-98160089D01*
X128045220Y-98665277D01*
X128044743Y-99212286D01*
X126742334Y-99212286D01*
X126821903Y-99132856D01*
X126924883Y-98884855D01*
X126925117Y-98616323D01*
X126875000Y-98495031D01*
X126875000Y-96982549D01*
X127015857Y-96924348D01*
X127402989Y-96537892D01*
X127612761Y-96032704D01*
X127613238Y-95485695D01*
X127549192Y-95330692D01*
X130406743Y-92473141D01*
X130559490Y-92536567D01*
X131106499Y-92537044D01*
X131612051Y-92328154D01*
X131999183Y-91941698D01*
X132208955Y-91436510D01*
X132209432Y-90889501D01*
X132000542Y-90383949D01*
X131614086Y-89996817D01*
X131320718Y-89875000D01*
X136241116Y-89875000D01*
X138625000Y-92258884D01*
X138625000Y-93775250D01*
X138525250Y-93875000D01*
X137974750Y-93875000D01*
X137841750Y-93742000D01*
X137624089Y-93742000D01*
X137391435Y-93838368D01*
X137354803Y-93875000D01*
X136000000Y-93875000D01*
X135954568Y-93883549D01*
X135912841Y-93910399D01*
X135884848Y-93951368D01*
X135875000Y-94000000D01*
X135875000Y-97701000D01*
X135793089Y-97701000D01*
X135560435Y-97797368D01*
X135382369Y-97975434D01*
X135286000Y-98208088D01*
X135286000Y-98475750D01*
X135444250Y-98634000D01*
X136669000Y-98634000D01*
X136669000Y-98625000D01*
X137169000Y-98625000D01*
X137169000Y-98634000D01*
X138393750Y-98634000D01*
X138402750Y-98625000D01*
X138625000Y-98625000D01*
X138625000Y-101500000D01*
X138672575Y-101739177D01*
X138808058Y-101941942D01*
X139592056Y-102725939D01*
X139592058Y-102725942D01*
X139713606Y-102807158D01*
X139794822Y-102861425D01*
X140034000Y-102909000D01*
X140350766Y-102909000D01*
X140362802Y-102972966D01*
X140444931Y-103100599D01*
X140570246Y-103186223D01*
X140719000Y-103216346D01*
X142719000Y-103216346D01*
X142857966Y-103190198D01*
X142985599Y-103108069D01*
X143071223Y-102982754D01*
X143101346Y-102834000D01*
X143101346Y-101734000D01*
X143075198Y-101595034D01*
X142993069Y-101467401D01*
X142944725Y-101434369D01*
X142985597Y-101408069D01*
X143071221Y-101282754D01*
X143086156Y-101209000D01*
X143916000Y-101209000D01*
X144155177Y-101161425D01*
X144357942Y-101025942D01*
X145148884Y-100235000D01*
X150516001Y-100235000D01*
X150590218Y-100608116D01*
X150801572Y-100924429D01*
X151117885Y-101135783D01*
X151491001Y-101210000D01*
X152038999Y-101210000D01*
X152412115Y-101135783D01*
X152728428Y-100924429D01*
X152939782Y-100608116D01*
X153013999Y-100235000D01*
X152939782Y-99861884D01*
X152728428Y-99545571D01*
X152412115Y-99334217D01*
X152038999Y-99260000D01*
X151491001Y-99260000D01*
X151117885Y-99334217D01*
X150801572Y-99545571D01*
X150590218Y-99861884D01*
X150516001Y-100235000D01*
X145148884Y-100235000D01*
X145941942Y-99441942D01*
X146077425Y-99239178D01*
X146125000Y-99000000D01*
X146125000Y-92500005D01*
X146125001Y-92500000D01*
X146077425Y-92260823D01*
X146054974Y-92227223D01*
X145976649Y-92110000D01*
X150532654Y-92110000D01*
X150532654Y-93310000D01*
X150558802Y-93448966D01*
X150640931Y-93576599D01*
X150766246Y-93662223D01*
X150915000Y-93692346D01*
X152615000Y-93692346D01*
X152753966Y-93666198D01*
X152881599Y-93584069D01*
X152967223Y-93458754D01*
X152997346Y-93310000D01*
X152997346Y-92110000D01*
X152971198Y-91971034D01*
X152889069Y-91843401D01*
X152763754Y-91757777D01*
X152615000Y-91727654D01*
X150915000Y-91727654D01*
X150776034Y-91753802D01*
X150648401Y-91835931D01*
X150562777Y-91961246D01*
X150532654Y-92110000D01*
X145976649Y-92110000D01*
X145941942Y-92058058D01*
X145941939Y-92058056D01*
X141691942Y-87808058D01*
X141489177Y-87672575D01*
X141250000Y-87625000D01*
X132008883Y-87625000D01*
X131444880Y-87060996D01*
X131575000Y-87087346D01*
X133575000Y-87087346D01*
X133713966Y-87061198D01*
X133841599Y-86979069D01*
X133927223Y-86853754D01*
X133942158Y-86780000D01*
X143646116Y-86780000D01*
X148018058Y-91151942D01*
X148220823Y-91287425D01*
X148460000Y-91335001D01*
X148460005Y-91335000D01*
X150758522Y-91335000D01*
X150801572Y-91399429D01*
X151117885Y-91610783D01*
X151491001Y-91685000D01*
X152038999Y-91685000D01*
X152412115Y-91610783D01*
X152728428Y-91399429D01*
X152939782Y-91083116D01*
X153013999Y-90710000D01*
X152939782Y-90336884D01*
X152728428Y-90020571D01*
X152412115Y-89809217D01*
X152038999Y-89735000D01*
X151491001Y-89735000D01*
X151117885Y-89809217D01*
X150801572Y-90020571D01*
X150758522Y-90085000D01*
X148718884Y-90085000D01*
X144346942Y-85713058D01*
X144144177Y-85577575D01*
X143905000Y-85530000D01*
X133943234Y-85530000D01*
X133931198Y-85466034D01*
X133849069Y-85338401D01*
X133800725Y-85305369D01*
X133841597Y-85279069D01*
X133927221Y-85153754D01*
X133942156Y-85080000D01*
X144946116Y-85080000D01*
X149018058Y-89151942D01*
X149220823Y-89287425D01*
X149460000Y-89335001D01*
X149460005Y-89335000D01*
X150758522Y-89335000D01*
X150801572Y-89399429D01*
X151117885Y-89610783D01*
X151491001Y-89685000D01*
X152038999Y-89685000D01*
X152412115Y-89610783D01*
X152728428Y-89399429D01*
X152939782Y-89083116D01*
X153013999Y-88710000D01*
X152939782Y-88336884D01*
X152728428Y-88020571D01*
X152453825Y-87837087D01*
X152659241Y-87761305D01*
X153012518Y-87434739D01*
X153168415Y-87145799D01*
X153060269Y-86960000D01*
X152015000Y-86960000D01*
X152015000Y-86980000D01*
X151515000Y-86980000D01*
X151515000Y-86960000D01*
X150469731Y-86960000D01*
X150361585Y-87145799D01*
X150517482Y-87434739D01*
X150870759Y-87761305D01*
X151076175Y-87837087D01*
X150801572Y-88020571D01*
X150758522Y-88085000D01*
X149718884Y-88085000D01*
X147908085Y-86274201D01*
X150361585Y-86274201D01*
X150469731Y-86460000D01*
X151515000Y-86460000D01*
X151515000Y-85635250D01*
X152015000Y-85635250D01*
X152015000Y-86460000D01*
X153060269Y-86460000D01*
X153168415Y-86274201D01*
X153012518Y-85985261D01*
X152659241Y-85658695D01*
X152207884Y-85492180D01*
X152015000Y-85635250D01*
X151515000Y-85635250D01*
X151322116Y-85492180D01*
X150870759Y-85658695D01*
X150517482Y-85985261D01*
X150361585Y-86274201D01*
X147908085Y-86274201D01*
X145646942Y-84013058D01*
X145444177Y-83877575D01*
X145205000Y-83830000D01*
X133943232Y-83830000D01*
X133931196Y-83766034D01*
X133849067Y-83638401D01*
X133800724Y-83605370D01*
X133841599Y-83579068D01*
X133927223Y-83453753D01*
X133957346Y-83304999D01*
X133957346Y-82204999D01*
X133931198Y-82066033D01*
X133849069Y-81938400D01*
X133723754Y-81852776D01*
X133575000Y-81822653D01*
X133200000Y-81822653D01*
X133200000Y-81683884D01*
X133761639Y-81122244D01*
X133881857Y-81072571D01*
X134071903Y-80882856D01*
X134174883Y-80634855D01*
X134175117Y-80366323D01*
X134072571Y-80118143D01*
X133882856Y-79928097D01*
X133634855Y-79825117D01*
X133366323Y-79824883D01*
X133118143Y-79927429D01*
X132928097Y-80117144D01*
X132877768Y-80238349D01*
X132133058Y-80983058D01*
X131997575Y-81185823D01*
X131950000Y-81425000D01*
X131950000Y-81822653D01*
X131575000Y-81822653D01*
X131436034Y-81848801D01*
X131308401Y-81930930D01*
X131222777Y-82056245D01*
X131207842Y-82129999D01*
X130517024Y-82129999D01*
X130384855Y-82075117D01*
X130116323Y-82074883D01*
X129868143Y-82177429D01*
X129678097Y-82367144D01*
X129575117Y-82615145D01*
X129574883Y-82883677D01*
X129677429Y-83131857D01*
X129867144Y-83321903D01*
X130115145Y-83424883D01*
X130383677Y-83425117D01*
X130492871Y-83379999D01*
X131206766Y-83379999D01*
X131218802Y-83443965D01*
X131300931Y-83571598D01*
X131349274Y-83604629D01*
X131308399Y-83630931D01*
X131222775Y-83756246D01*
X131192652Y-83905000D01*
X131192652Y-85005000D01*
X131218800Y-85143966D01*
X131300929Y-85271599D01*
X131349273Y-85304631D01*
X131308401Y-85330931D01*
X131222777Y-85456246D01*
X131192654Y-85605000D01*
X131192654Y-86705000D01*
X131216705Y-86832821D01*
X130875000Y-86491116D01*
X130875000Y-85000000D01*
X130827425Y-84760823D01*
X130827425Y-84760822D01*
X130730086Y-84615145D01*
X130691942Y-84558058D01*
X130691939Y-84558056D01*
X130146942Y-84013058D01*
X129944177Y-83877575D01*
X129705000Y-83830000D01*
X129145197Y-83830000D01*
X129311631Y-83663566D01*
X129408000Y-83430912D01*
X129408000Y-83163250D01*
X129249750Y-83005000D01*
X129125000Y-83005000D01*
X129125000Y-82505000D01*
X129249750Y-82505000D01*
X129408000Y-82346750D01*
X129408000Y-82079088D01*
X129311631Y-81846434D01*
X129133565Y-81668368D01*
X129125000Y-81664820D01*
X129125000Y-81500000D01*
X129116451Y-81454568D01*
X129089601Y-81412841D01*
X129048632Y-81384848D01*
X129000000Y-81375000D01*
X124500000Y-81375000D01*
X124452963Y-81384187D01*
X124411612Y-81411612D01*
X117411612Y-88411612D01*
X117384848Y-88451368D01*
X117375000Y-88500000D01*
X117375000Y-97658044D01*
X117241435Y-97713368D01*
X117063369Y-97891434D01*
X116967000Y-98124088D01*
X115507972Y-98124088D01*
X111016942Y-93633058D01*
X110814177Y-93497575D01*
X110575000Y-93450000D01*
X109591478Y-93450000D01*
X109548428Y-93385571D01*
X109432335Y-93308000D01*
X109560912Y-93308000D01*
X109793566Y-93211631D01*
X109971632Y-93033565D01*
X110068000Y-92800911D01*
X110068000Y-92483250D01*
X109909750Y-92325000D01*
X108835000Y-92325000D01*
X108835000Y-92345000D01*
X108335000Y-92345000D01*
X108335000Y-92325000D01*
X107260250Y-92325000D01*
X107102000Y-92483250D01*
X102125000Y-92483250D01*
X102125000Y-91349089D01*
X107102000Y-91349089D01*
X107102000Y-91666750D01*
X107260250Y-91825000D01*
X108335000Y-91825000D01*
X108335000Y-91000250D01*
X108835000Y-91000250D01*
X108835000Y-91825000D01*
X109909750Y-91825000D01*
X110068000Y-91666750D01*
X110068000Y-91349089D01*
X109971632Y-91116435D01*
X109793566Y-90938369D01*
X109560912Y-90842000D01*
X108993250Y-90842000D01*
X108835000Y-91000250D01*
X108335000Y-91000250D01*
X108176750Y-90842000D01*
X107609088Y-90842000D01*
X107376434Y-90938369D01*
X107198368Y-91116435D01*
X107102000Y-91349089D01*
X102125000Y-91349089D01*
X102125000Y-84125000D01*
X110000000Y-84125000D01*
X110048632Y-84115152D01*
X110089601Y-84087159D01*
X110116451Y-84045432D01*
X110125000Y-84000000D01*
X110125000Y-77125000D01*
X150875000Y-77125000D01*
X150875000Y-84000000D01*
M02*
