G04 #@! TF.FileFunction,Other,Fab,Top*
%FSLAX46Y46*%
G04 Gerber Fmt 4.6, Leading zero omitted, Abs format (unit mm)*
G04 Created by KiCad (PCBNEW 4.0.6) date 05/22/18 14:15:00*
%MOMM*%
%LPD*%
G01*
G04 APERTURE LIST*
%ADD10C,0.100000*%
%ADD11C,0.150000*%
%ADD12C,0.075000*%
G04 APERTURE END LIST*
D10*
X120000000Y-91870000D02*
X120000000Y-90630000D01*
X122000000Y-91870000D02*
X120000000Y-91870000D01*
X122000000Y-90630000D02*
X122000000Y-91870000D01*
X120000000Y-90630000D02*
X122000000Y-90630000D01*
X138250000Y-95620000D02*
X138250000Y-94380000D01*
X140250000Y-95620000D02*
X138250000Y-95620000D01*
X140250000Y-94380000D02*
X140250000Y-95620000D01*
X138250000Y-94380000D02*
X140250000Y-94380000D01*
X152015000Y-93960000D02*
X150415000Y-93960000D01*
X150415000Y-93960000D02*
X150415000Y-94660000D01*
X150415000Y-94660000D02*
X158015000Y-94660000D01*
X158015000Y-94660000D02*
X158015000Y-84760000D01*
X158015000Y-84760000D02*
X150415000Y-84760000D01*
X150415000Y-84760000D02*
X150415000Y-85460000D01*
X150415000Y-85460000D02*
X152015000Y-85460000D01*
X152015000Y-85460000D02*
X152015000Y-93960000D01*
X152615000Y-92710000D02*
X153115000Y-93210000D01*
X153115000Y-93210000D02*
X153115000Y-92210000D01*
X153115000Y-92210000D02*
X152615000Y-92710000D01*
X152015000Y-103485000D02*
X150415000Y-103485000D01*
X150415000Y-103485000D02*
X150415000Y-104185000D01*
X150415000Y-104185000D02*
X158015000Y-104185000D01*
X158015000Y-104185000D02*
X158015000Y-98285000D01*
X158015000Y-98285000D02*
X150415000Y-98285000D01*
X150415000Y-98285000D02*
X150415000Y-98985000D01*
X150415000Y-98985000D02*
X152015000Y-98985000D01*
X152015000Y-98985000D02*
X152015000Y-103485000D01*
X152615000Y-102235000D02*
X153115000Y-102735000D01*
X153115000Y-102735000D02*
X153115000Y-101735000D01*
X153115000Y-101735000D02*
X152615000Y-102235000D01*
X108335000Y-90825000D02*
X109935000Y-90825000D01*
X109935000Y-90825000D02*
X109935000Y-90125000D01*
X109935000Y-90125000D02*
X102335000Y-90125000D01*
X102335000Y-90125000D02*
X102335000Y-100025000D01*
X102335000Y-100025000D02*
X109935000Y-100025000D01*
X109935000Y-100025000D02*
X109935000Y-99325000D01*
X109935000Y-99325000D02*
X108335000Y-99325000D01*
X108335000Y-99325000D02*
X108335000Y-90825000D01*
X107735000Y-92075000D02*
X107235000Y-91575000D01*
X107235000Y-91575000D02*
X107235000Y-92575000D01*
X107235000Y-92575000D02*
X107735000Y-92075000D01*
X127620000Y-109000000D02*
X126380000Y-109000000D01*
X127620000Y-107000000D02*
X127620000Y-109000000D01*
X126380000Y-107000000D02*
X127620000Y-107000000D01*
X126380000Y-109000000D02*
X126380000Y-107000000D01*
X131630000Y-107000000D02*
X132870000Y-107000000D01*
X131630000Y-109000000D02*
X131630000Y-107000000D01*
X132870000Y-109000000D02*
X131630000Y-109000000D01*
X132870000Y-107000000D02*
X132870000Y-109000000D01*
X138370000Y-109000000D02*
X137130000Y-109000000D01*
X138370000Y-107000000D02*
X138370000Y-109000000D01*
X137130000Y-107000000D02*
X138370000Y-107000000D01*
X137130000Y-109000000D02*
X137130000Y-107000000D01*
X128005767Y-92929573D02*
X130127087Y-90808253D01*
X130127087Y-90808253D02*
X134369728Y-95050893D01*
X134369728Y-95050893D02*
X130127087Y-99293534D01*
X130127087Y-99293534D02*
X125884447Y-95050893D01*
X125884447Y-95050893D02*
X128005767Y-92929573D01*
X132142651Y-95050893D02*
G75*
G03X132142651Y-95050893I-2015564J0D01*
G01*
D11*
X147884524Y-84527381D02*
X147884524Y-83527381D01*
X148217858Y-84241667D01*
X148551191Y-83527381D01*
X148551191Y-84527381D01*
X149170238Y-84527381D02*
X149075000Y-84479762D01*
X149027381Y-84432143D01*
X148979762Y-84336905D01*
X148979762Y-84051190D01*
X149027381Y-83955952D01*
X149075000Y-83908333D01*
X149170238Y-83860714D01*
X149313096Y-83860714D01*
X149408334Y-83908333D01*
X149455953Y-83955952D01*
X149503572Y-84051190D01*
X149503572Y-84336905D01*
X149455953Y-84432143D01*
X149408334Y-84479762D01*
X149313096Y-84527381D01*
X149170238Y-84527381D01*
X150360715Y-83860714D02*
X150360715Y-84527381D01*
X149932143Y-83860714D02*
X149932143Y-84384524D01*
X149979762Y-84479762D01*
X150075000Y-84527381D01*
X150217858Y-84527381D01*
X150313096Y-84479762D01*
X150360715Y-84432143D01*
X150836905Y-83860714D02*
X150836905Y-84527381D01*
X150836905Y-83955952D02*
X150884524Y-83908333D01*
X150979762Y-83860714D01*
X151122620Y-83860714D01*
X151217858Y-83908333D01*
X151265477Y-84003571D01*
X151265477Y-84527381D01*
X151598810Y-83860714D02*
X151979762Y-83860714D01*
X151741667Y-83527381D02*
X151741667Y-84384524D01*
X151789286Y-84479762D01*
X151884524Y-84527381D01*
X151979762Y-84527381D01*
X152313096Y-84527381D02*
X152313096Y-83860714D01*
X152313096Y-83527381D02*
X152265477Y-83575000D01*
X152313096Y-83622619D01*
X152360715Y-83575000D01*
X152313096Y-83527381D01*
X152313096Y-83622619D01*
X152789286Y-83860714D02*
X152789286Y-84527381D01*
X152789286Y-83955952D02*
X152836905Y-83908333D01*
X152932143Y-83860714D01*
X153075001Y-83860714D01*
X153170239Y-83908333D01*
X153217858Y-84003571D01*
X153217858Y-84527381D01*
X154122620Y-83860714D02*
X154122620Y-84670238D01*
X154075001Y-84765476D01*
X154027382Y-84813095D01*
X153932143Y-84860714D01*
X153789286Y-84860714D01*
X153694048Y-84813095D01*
X154122620Y-84479762D02*
X154027382Y-84527381D01*
X153836905Y-84527381D01*
X153741667Y-84479762D01*
X153694048Y-84432143D01*
X153646429Y-84336905D01*
X153646429Y-84051190D01*
X153694048Y-83955952D01*
X153741667Y-83908333D01*
X153836905Y-83860714D01*
X154027382Y-83860714D01*
X154122620Y-83908333D01*
X154598810Y-84527381D02*
X154598810Y-83527381D01*
X154598810Y-84003571D02*
X155170239Y-84003571D01*
X155170239Y-84527381D02*
X155170239Y-83527381D01*
X155789286Y-84527381D02*
X155694048Y-84479762D01*
X155646429Y-84432143D01*
X155598810Y-84336905D01*
X155598810Y-84051190D01*
X155646429Y-83955952D01*
X155694048Y-83908333D01*
X155789286Y-83860714D01*
X155932144Y-83860714D01*
X156027382Y-83908333D01*
X156075001Y-83955952D01*
X156122620Y-84051190D01*
X156122620Y-84336905D01*
X156075001Y-84432143D01*
X156027382Y-84479762D01*
X155932144Y-84527381D01*
X155789286Y-84527381D01*
X156694048Y-84527381D02*
X156598810Y-84479762D01*
X156551191Y-84384524D01*
X156551191Y-83527381D01*
X157455954Y-84479762D02*
X157360716Y-84527381D01*
X157170239Y-84527381D01*
X157075001Y-84479762D01*
X157027382Y-84384524D01*
X157027382Y-84003571D01*
X157075001Y-83908333D01*
X157170239Y-83860714D01*
X157360716Y-83860714D01*
X157455954Y-83908333D01*
X157503573Y-84003571D01*
X157503573Y-84098810D01*
X157027382Y-84194048D01*
X157694049Y-84622619D02*
X158455954Y-84622619D01*
X158598811Y-83527381D02*
X159217859Y-83527381D01*
X158884525Y-83908333D01*
X159027383Y-83908333D01*
X159122621Y-83955952D01*
X159170240Y-84003571D01*
X159217859Y-84098810D01*
X159217859Y-84336905D01*
X159170240Y-84432143D01*
X159122621Y-84479762D01*
X159027383Y-84527381D01*
X158741668Y-84527381D01*
X158646430Y-84479762D01*
X158598811Y-84432143D01*
X159646430Y-84432143D02*
X159694049Y-84479762D01*
X159646430Y-84527381D01*
X159598811Y-84479762D01*
X159646430Y-84432143D01*
X159646430Y-84527381D01*
X160027382Y-83527381D02*
X160694049Y-83527381D01*
X160265477Y-84527381D01*
X161075001Y-84527381D02*
X161075001Y-83860714D01*
X161075001Y-83955952D02*
X161122620Y-83908333D01*
X161217858Y-83860714D01*
X161360716Y-83860714D01*
X161455954Y-83908333D01*
X161503573Y-84003571D01*
X161503573Y-84527381D01*
X161503573Y-84003571D02*
X161551192Y-83908333D01*
X161646430Y-83860714D01*
X161789287Y-83860714D01*
X161884525Y-83908333D01*
X161932144Y-84003571D01*
X161932144Y-84527381D01*
X162408334Y-84527381D02*
X162408334Y-83860714D01*
X162408334Y-83955952D02*
X162455953Y-83908333D01*
X162551191Y-83860714D01*
X162694049Y-83860714D01*
X162789287Y-83908333D01*
X162836906Y-84003571D01*
X162836906Y-84527381D01*
X162836906Y-84003571D02*
X162884525Y-83908333D01*
X162979763Y-83860714D01*
X163122620Y-83860714D01*
X163217858Y-83908333D01*
X163265477Y-84003571D01*
X163265477Y-84527381D01*
X154541667Y-79827381D02*
X154208333Y-79351190D01*
X153970238Y-79827381D02*
X153970238Y-78827381D01*
X154351191Y-78827381D01*
X154446429Y-78875000D01*
X154494048Y-78922619D01*
X154541667Y-79017857D01*
X154541667Y-79160714D01*
X154494048Y-79255952D01*
X154446429Y-79303571D01*
X154351191Y-79351190D01*
X153970238Y-79351190D01*
X154970238Y-79303571D02*
X155303572Y-79303571D01*
X155446429Y-79827381D02*
X154970238Y-79827381D01*
X154970238Y-78827381D01*
X155446429Y-78827381D01*
X156208334Y-79303571D02*
X155875000Y-79303571D01*
X155875000Y-79827381D02*
X155875000Y-78827381D01*
X156351191Y-78827381D01*
X156875000Y-78827381D02*
X156875000Y-79065476D01*
X156636905Y-78970238D02*
X156875000Y-79065476D01*
X157113096Y-78970238D01*
X156732143Y-79255952D02*
X156875000Y-79065476D01*
X157017858Y-79255952D01*
X157636905Y-78827381D02*
X157636905Y-79065476D01*
X157398810Y-78970238D02*
X157636905Y-79065476D01*
X157875001Y-78970238D01*
X157494048Y-79255952D02*
X157636905Y-79065476D01*
X157779763Y-79255952D01*
X147884524Y-116277381D02*
X147884524Y-115277381D01*
X148217858Y-115991667D01*
X148551191Y-115277381D01*
X148551191Y-116277381D01*
X149170238Y-116277381D02*
X149075000Y-116229762D01*
X149027381Y-116182143D01*
X148979762Y-116086905D01*
X148979762Y-115801190D01*
X149027381Y-115705952D01*
X149075000Y-115658333D01*
X149170238Y-115610714D01*
X149313096Y-115610714D01*
X149408334Y-115658333D01*
X149455953Y-115705952D01*
X149503572Y-115801190D01*
X149503572Y-116086905D01*
X149455953Y-116182143D01*
X149408334Y-116229762D01*
X149313096Y-116277381D01*
X149170238Y-116277381D01*
X150360715Y-115610714D02*
X150360715Y-116277381D01*
X149932143Y-115610714D02*
X149932143Y-116134524D01*
X149979762Y-116229762D01*
X150075000Y-116277381D01*
X150217858Y-116277381D01*
X150313096Y-116229762D01*
X150360715Y-116182143D01*
X150836905Y-115610714D02*
X150836905Y-116277381D01*
X150836905Y-115705952D02*
X150884524Y-115658333D01*
X150979762Y-115610714D01*
X151122620Y-115610714D01*
X151217858Y-115658333D01*
X151265477Y-115753571D01*
X151265477Y-116277381D01*
X151598810Y-115610714D02*
X151979762Y-115610714D01*
X151741667Y-115277381D02*
X151741667Y-116134524D01*
X151789286Y-116229762D01*
X151884524Y-116277381D01*
X151979762Y-116277381D01*
X152313096Y-116277381D02*
X152313096Y-115610714D01*
X152313096Y-115277381D02*
X152265477Y-115325000D01*
X152313096Y-115372619D01*
X152360715Y-115325000D01*
X152313096Y-115277381D01*
X152313096Y-115372619D01*
X152789286Y-115610714D02*
X152789286Y-116277381D01*
X152789286Y-115705952D02*
X152836905Y-115658333D01*
X152932143Y-115610714D01*
X153075001Y-115610714D01*
X153170239Y-115658333D01*
X153217858Y-115753571D01*
X153217858Y-116277381D01*
X154122620Y-115610714D02*
X154122620Y-116420238D01*
X154075001Y-116515476D01*
X154027382Y-116563095D01*
X153932143Y-116610714D01*
X153789286Y-116610714D01*
X153694048Y-116563095D01*
X154122620Y-116229762D02*
X154027382Y-116277381D01*
X153836905Y-116277381D01*
X153741667Y-116229762D01*
X153694048Y-116182143D01*
X153646429Y-116086905D01*
X153646429Y-115801190D01*
X153694048Y-115705952D01*
X153741667Y-115658333D01*
X153836905Y-115610714D01*
X154027382Y-115610714D01*
X154122620Y-115658333D01*
X154598810Y-116277381D02*
X154598810Y-115277381D01*
X154598810Y-115753571D02*
X155170239Y-115753571D01*
X155170239Y-116277381D02*
X155170239Y-115277381D01*
X155789286Y-116277381D02*
X155694048Y-116229762D01*
X155646429Y-116182143D01*
X155598810Y-116086905D01*
X155598810Y-115801190D01*
X155646429Y-115705952D01*
X155694048Y-115658333D01*
X155789286Y-115610714D01*
X155932144Y-115610714D01*
X156027382Y-115658333D01*
X156075001Y-115705952D01*
X156122620Y-115801190D01*
X156122620Y-116086905D01*
X156075001Y-116182143D01*
X156027382Y-116229762D01*
X155932144Y-116277381D01*
X155789286Y-116277381D01*
X156694048Y-116277381D02*
X156598810Y-116229762D01*
X156551191Y-116134524D01*
X156551191Y-115277381D01*
X157455954Y-116229762D02*
X157360716Y-116277381D01*
X157170239Y-116277381D01*
X157075001Y-116229762D01*
X157027382Y-116134524D01*
X157027382Y-115753571D01*
X157075001Y-115658333D01*
X157170239Y-115610714D01*
X157360716Y-115610714D01*
X157455954Y-115658333D01*
X157503573Y-115753571D01*
X157503573Y-115848810D01*
X157027382Y-115944048D01*
X157694049Y-116372619D02*
X158455954Y-116372619D01*
X158598811Y-115277381D02*
X159217859Y-115277381D01*
X158884525Y-115658333D01*
X159027383Y-115658333D01*
X159122621Y-115705952D01*
X159170240Y-115753571D01*
X159217859Y-115848810D01*
X159217859Y-116086905D01*
X159170240Y-116182143D01*
X159122621Y-116229762D01*
X159027383Y-116277381D01*
X158741668Y-116277381D01*
X158646430Y-116229762D01*
X158598811Y-116182143D01*
X159646430Y-116182143D02*
X159694049Y-116229762D01*
X159646430Y-116277381D01*
X159598811Y-116229762D01*
X159646430Y-116182143D01*
X159646430Y-116277381D01*
X160027382Y-115277381D02*
X160694049Y-115277381D01*
X160265477Y-116277381D01*
X161075001Y-116277381D02*
X161075001Y-115610714D01*
X161075001Y-115705952D02*
X161122620Y-115658333D01*
X161217858Y-115610714D01*
X161360716Y-115610714D01*
X161455954Y-115658333D01*
X161503573Y-115753571D01*
X161503573Y-116277381D01*
X161503573Y-115753571D02*
X161551192Y-115658333D01*
X161646430Y-115610714D01*
X161789287Y-115610714D01*
X161884525Y-115658333D01*
X161932144Y-115753571D01*
X161932144Y-116277381D01*
X162408334Y-116277381D02*
X162408334Y-115610714D01*
X162408334Y-115705952D02*
X162455953Y-115658333D01*
X162551191Y-115610714D01*
X162694049Y-115610714D01*
X162789287Y-115658333D01*
X162836906Y-115753571D01*
X162836906Y-116277381D01*
X162836906Y-115753571D02*
X162884525Y-115658333D01*
X162979763Y-115610714D01*
X163122620Y-115610714D01*
X163217858Y-115658333D01*
X163265477Y-115753571D01*
X163265477Y-116277381D01*
X154541667Y-111577381D02*
X154208333Y-111101190D01*
X153970238Y-111577381D02*
X153970238Y-110577381D01*
X154351191Y-110577381D01*
X154446429Y-110625000D01*
X154494048Y-110672619D01*
X154541667Y-110767857D01*
X154541667Y-110910714D01*
X154494048Y-111005952D01*
X154446429Y-111053571D01*
X154351191Y-111101190D01*
X153970238Y-111101190D01*
X154970238Y-111053571D02*
X155303572Y-111053571D01*
X155446429Y-111577381D02*
X154970238Y-111577381D01*
X154970238Y-110577381D01*
X155446429Y-110577381D01*
X156208334Y-111053571D02*
X155875000Y-111053571D01*
X155875000Y-111577381D02*
X155875000Y-110577381D01*
X156351191Y-110577381D01*
X156875000Y-110577381D02*
X156875000Y-110815476D01*
X156636905Y-110720238D02*
X156875000Y-110815476D01*
X157113096Y-110720238D01*
X156732143Y-111005952D02*
X156875000Y-110815476D01*
X157017858Y-111005952D01*
X157636905Y-110577381D02*
X157636905Y-110815476D01*
X157398810Y-110720238D02*
X157636905Y-110815476D01*
X157875001Y-110720238D01*
X157494048Y-111005952D02*
X157636905Y-110815476D01*
X157779763Y-111005952D01*
X97084524Y-116277381D02*
X97084524Y-115277381D01*
X97417858Y-115991667D01*
X97751191Y-115277381D01*
X97751191Y-116277381D01*
X98370238Y-116277381D02*
X98275000Y-116229762D01*
X98227381Y-116182143D01*
X98179762Y-116086905D01*
X98179762Y-115801190D01*
X98227381Y-115705952D01*
X98275000Y-115658333D01*
X98370238Y-115610714D01*
X98513096Y-115610714D01*
X98608334Y-115658333D01*
X98655953Y-115705952D01*
X98703572Y-115801190D01*
X98703572Y-116086905D01*
X98655953Y-116182143D01*
X98608334Y-116229762D01*
X98513096Y-116277381D01*
X98370238Y-116277381D01*
X99560715Y-115610714D02*
X99560715Y-116277381D01*
X99132143Y-115610714D02*
X99132143Y-116134524D01*
X99179762Y-116229762D01*
X99275000Y-116277381D01*
X99417858Y-116277381D01*
X99513096Y-116229762D01*
X99560715Y-116182143D01*
X100036905Y-115610714D02*
X100036905Y-116277381D01*
X100036905Y-115705952D02*
X100084524Y-115658333D01*
X100179762Y-115610714D01*
X100322620Y-115610714D01*
X100417858Y-115658333D01*
X100465477Y-115753571D01*
X100465477Y-116277381D01*
X100798810Y-115610714D02*
X101179762Y-115610714D01*
X100941667Y-115277381D02*
X100941667Y-116134524D01*
X100989286Y-116229762D01*
X101084524Y-116277381D01*
X101179762Y-116277381D01*
X101513096Y-116277381D02*
X101513096Y-115610714D01*
X101513096Y-115277381D02*
X101465477Y-115325000D01*
X101513096Y-115372619D01*
X101560715Y-115325000D01*
X101513096Y-115277381D01*
X101513096Y-115372619D01*
X101989286Y-115610714D02*
X101989286Y-116277381D01*
X101989286Y-115705952D02*
X102036905Y-115658333D01*
X102132143Y-115610714D01*
X102275001Y-115610714D01*
X102370239Y-115658333D01*
X102417858Y-115753571D01*
X102417858Y-116277381D01*
X103322620Y-115610714D02*
X103322620Y-116420238D01*
X103275001Y-116515476D01*
X103227382Y-116563095D01*
X103132143Y-116610714D01*
X102989286Y-116610714D01*
X102894048Y-116563095D01*
X103322620Y-116229762D02*
X103227382Y-116277381D01*
X103036905Y-116277381D01*
X102941667Y-116229762D01*
X102894048Y-116182143D01*
X102846429Y-116086905D01*
X102846429Y-115801190D01*
X102894048Y-115705952D01*
X102941667Y-115658333D01*
X103036905Y-115610714D01*
X103227382Y-115610714D01*
X103322620Y-115658333D01*
X103798810Y-116277381D02*
X103798810Y-115277381D01*
X103798810Y-115753571D02*
X104370239Y-115753571D01*
X104370239Y-116277381D02*
X104370239Y-115277381D01*
X104989286Y-116277381D02*
X104894048Y-116229762D01*
X104846429Y-116182143D01*
X104798810Y-116086905D01*
X104798810Y-115801190D01*
X104846429Y-115705952D01*
X104894048Y-115658333D01*
X104989286Y-115610714D01*
X105132144Y-115610714D01*
X105227382Y-115658333D01*
X105275001Y-115705952D01*
X105322620Y-115801190D01*
X105322620Y-116086905D01*
X105275001Y-116182143D01*
X105227382Y-116229762D01*
X105132144Y-116277381D01*
X104989286Y-116277381D01*
X105894048Y-116277381D02*
X105798810Y-116229762D01*
X105751191Y-116134524D01*
X105751191Y-115277381D01*
X106655954Y-116229762D02*
X106560716Y-116277381D01*
X106370239Y-116277381D01*
X106275001Y-116229762D01*
X106227382Y-116134524D01*
X106227382Y-115753571D01*
X106275001Y-115658333D01*
X106370239Y-115610714D01*
X106560716Y-115610714D01*
X106655954Y-115658333D01*
X106703573Y-115753571D01*
X106703573Y-115848810D01*
X106227382Y-115944048D01*
X106894049Y-116372619D02*
X107655954Y-116372619D01*
X107798811Y-115277381D02*
X108417859Y-115277381D01*
X108084525Y-115658333D01*
X108227383Y-115658333D01*
X108322621Y-115705952D01*
X108370240Y-115753571D01*
X108417859Y-115848810D01*
X108417859Y-116086905D01*
X108370240Y-116182143D01*
X108322621Y-116229762D01*
X108227383Y-116277381D01*
X107941668Y-116277381D01*
X107846430Y-116229762D01*
X107798811Y-116182143D01*
X108846430Y-116182143D02*
X108894049Y-116229762D01*
X108846430Y-116277381D01*
X108798811Y-116229762D01*
X108846430Y-116182143D01*
X108846430Y-116277381D01*
X109227382Y-115277381D02*
X109894049Y-115277381D01*
X109465477Y-116277381D01*
X110275001Y-116277381D02*
X110275001Y-115610714D01*
X110275001Y-115705952D02*
X110322620Y-115658333D01*
X110417858Y-115610714D01*
X110560716Y-115610714D01*
X110655954Y-115658333D01*
X110703573Y-115753571D01*
X110703573Y-116277381D01*
X110703573Y-115753571D02*
X110751192Y-115658333D01*
X110846430Y-115610714D01*
X110989287Y-115610714D01*
X111084525Y-115658333D01*
X111132144Y-115753571D01*
X111132144Y-116277381D01*
X111608334Y-116277381D02*
X111608334Y-115610714D01*
X111608334Y-115705952D02*
X111655953Y-115658333D01*
X111751191Y-115610714D01*
X111894049Y-115610714D01*
X111989287Y-115658333D01*
X112036906Y-115753571D01*
X112036906Y-116277381D01*
X112036906Y-115753571D02*
X112084525Y-115658333D01*
X112179763Y-115610714D01*
X112322620Y-115610714D01*
X112417858Y-115658333D01*
X112465477Y-115753571D01*
X112465477Y-116277381D01*
X103741667Y-111577381D02*
X103408333Y-111101190D01*
X103170238Y-111577381D02*
X103170238Y-110577381D01*
X103551191Y-110577381D01*
X103646429Y-110625000D01*
X103694048Y-110672619D01*
X103741667Y-110767857D01*
X103741667Y-110910714D01*
X103694048Y-111005952D01*
X103646429Y-111053571D01*
X103551191Y-111101190D01*
X103170238Y-111101190D01*
X104170238Y-111053571D02*
X104503572Y-111053571D01*
X104646429Y-111577381D02*
X104170238Y-111577381D01*
X104170238Y-110577381D01*
X104646429Y-110577381D01*
X105408334Y-111053571D02*
X105075000Y-111053571D01*
X105075000Y-111577381D02*
X105075000Y-110577381D01*
X105551191Y-110577381D01*
X106075000Y-110577381D02*
X106075000Y-110815476D01*
X105836905Y-110720238D02*
X106075000Y-110815476D01*
X106313096Y-110720238D01*
X105932143Y-111005952D02*
X106075000Y-110815476D01*
X106217858Y-111005952D01*
X106836905Y-110577381D02*
X106836905Y-110815476D01*
X106598810Y-110720238D02*
X106836905Y-110815476D01*
X107075001Y-110720238D01*
X106694048Y-111005952D02*
X106836905Y-110815476D01*
X106979763Y-111005952D01*
X97084524Y-84527381D02*
X97084524Y-83527381D01*
X97417858Y-84241667D01*
X97751191Y-83527381D01*
X97751191Y-84527381D01*
X98370238Y-84527381D02*
X98275000Y-84479762D01*
X98227381Y-84432143D01*
X98179762Y-84336905D01*
X98179762Y-84051190D01*
X98227381Y-83955952D01*
X98275000Y-83908333D01*
X98370238Y-83860714D01*
X98513096Y-83860714D01*
X98608334Y-83908333D01*
X98655953Y-83955952D01*
X98703572Y-84051190D01*
X98703572Y-84336905D01*
X98655953Y-84432143D01*
X98608334Y-84479762D01*
X98513096Y-84527381D01*
X98370238Y-84527381D01*
X99560715Y-83860714D02*
X99560715Y-84527381D01*
X99132143Y-83860714D02*
X99132143Y-84384524D01*
X99179762Y-84479762D01*
X99275000Y-84527381D01*
X99417858Y-84527381D01*
X99513096Y-84479762D01*
X99560715Y-84432143D01*
X100036905Y-83860714D02*
X100036905Y-84527381D01*
X100036905Y-83955952D02*
X100084524Y-83908333D01*
X100179762Y-83860714D01*
X100322620Y-83860714D01*
X100417858Y-83908333D01*
X100465477Y-84003571D01*
X100465477Y-84527381D01*
X100798810Y-83860714D02*
X101179762Y-83860714D01*
X100941667Y-83527381D02*
X100941667Y-84384524D01*
X100989286Y-84479762D01*
X101084524Y-84527381D01*
X101179762Y-84527381D01*
X101513096Y-84527381D02*
X101513096Y-83860714D01*
X101513096Y-83527381D02*
X101465477Y-83575000D01*
X101513096Y-83622619D01*
X101560715Y-83575000D01*
X101513096Y-83527381D01*
X101513096Y-83622619D01*
X101989286Y-83860714D02*
X101989286Y-84527381D01*
X101989286Y-83955952D02*
X102036905Y-83908333D01*
X102132143Y-83860714D01*
X102275001Y-83860714D01*
X102370239Y-83908333D01*
X102417858Y-84003571D01*
X102417858Y-84527381D01*
X103322620Y-83860714D02*
X103322620Y-84670238D01*
X103275001Y-84765476D01*
X103227382Y-84813095D01*
X103132143Y-84860714D01*
X102989286Y-84860714D01*
X102894048Y-84813095D01*
X103322620Y-84479762D02*
X103227382Y-84527381D01*
X103036905Y-84527381D01*
X102941667Y-84479762D01*
X102894048Y-84432143D01*
X102846429Y-84336905D01*
X102846429Y-84051190D01*
X102894048Y-83955952D01*
X102941667Y-83908333D01*
X103036905Y-83860714D01*
X103227382Y-83860714D01*
X103322620Y-83908333D01*
X103798810Y-84527381D02*
X103798810Y-83527381D01*
X103798810Y-84003571D02*
X104370239Y-84003571D01*
X104370239Y-84527381D02*
X104370239Y-83527381D01*
X104989286Y-84527381D02*
X104894048Y-84479762D01*
X104846429Y-84432143D01*
X104798810Y-84336905D01*
X104798810Y-84051190D01*
X104846429Y-83955952D01*
X104894048Y-83908333D01*
X104989286Y-83860714D01*
X105132144Y-83860714D01*
X105227382Y-83908333D01*
X105275001Y-83955952D01*
X105322620Y-84051190D01*
X105322620Y-84336905D01*
X105275001Y-84432143D01*
X105227382Y-84479762D01*
X105132144Y-84527381D01*
X104989286Y-84527381D01*
X105894048Y-84527381D02*
X105798810Y-84479762D01*
X105751191Y-84384524D01*
X105751191Y-83527381D01*
X106655954Y-84479762D02*
X106560716Y-84527381D01*
X106370239Y-84527381D01*
X106275001Y-84479762D01*
X106227382Y-84384524D01*
X106227382Y-84003571D01*
X106275001Y-83908333D01*
X106370239Y-83860714D01*
X106560716Y-83860714D01*
X106655954Y-83908333D01*
X106703573Y-84003571D01*
X106703573Y-84098810D01*
X106227382Y-84194048D01*
X106894049Y-84622619D02*
X107655954Y-84622619D01*
X107798811Y-83527381D02*
X108417859Y-83527381D01*
X108084525Y-83908333D01*
X108227383Y-83908333D01*
X108322621Y-83955952D01*
X108370240Y-84003571D01*
X108417859Y-84098810D01*
X108417859Y-84336905D01*
X108370240Y-84432143D01*
X108322621Y-84479762D01*
X108227383Y-84527381D01*
X107941668Y-84527381D01*
X107846430Y-84479762D01*
X107798811Y-84432143D01*
X108846430Y-84432143D02*
X108894049Y-84479762D01*
X108846430Y-84527381D01*
X108798811Y-84479762D01*
X108846430Y-84432143D01*
X108846430Y-84527381D01*
X109227382Y-83527381D02*
X109894049Y-83527381D01*
X109465477Y-84527381D01*
X110275001Y-84527381D02*
X110275001Y-83860714D01*
X110275001Y-83955952D02*
X110322620Y-83908333D01*
X110417858Y-83860714D01*
X110560716Y-83860714D01*
X110655954Y-83908333D01*
X110703573Y-84003571D01*
X110703573Y-84527381D01*
X110703573Y-84003571D02*
X110751192Y-83908333D01*
X110846430Y-83860714D01*
X110989287Y-83860714D01*
X111084525Y-83908333D01*
X111132144Y-84003571D01*
X111132144Y-84527381D01*
X111608334Y-84527381D02*
X111608334Y-83860714D01*
X111608334Y-83955952D02*
X111655953Y-83908333D01*
X111751191Y-83860714D01*
X111894049Y-83860714D01*
X111989287Y-83908333D01*
X112036906Y-84003571D01*
X112036906Y-84527381D01*
X112036906Y-84003571D02*
X112084525Y-83908333D01*
X112179763Y-83860714D01*
X112322620Y-83860714D01*
X112417858Y-83908333D01*
X112465477Y-84003571D01*
X112465477Y-84527381D01*
X103741667Y-79827381D02*
X103408333Y-79351190D01*
X103170238Y-79827381D02*
X103170238Y-78827381D01*
X103551191Y-78827381D01*
X103646429Y-78875000D01*
X103694048Y-78922619D01*
X103741667Y-79017857D01*
X103741667Y-79160714D01*
X103694048Y-79255952D01*
X103646429Y-79303571D01*
X103551191Y-79351190D01*
X103170238Y-79351190D01*
X104170238Y-79303571D02*
X104503572Y-79303571D01*
X104646429Y-79827381D02*
X104170238Y-79827381D01*
X104170238Y-78827381D01*
X104646429Y-78827381D01*
X105408334Y-79303571D02*
X105075000Y-79303571D01*
X105075000Y-79827381D02*
X105075000Y-78827381D01*
X105551191Y-78827381D01*
X106075000Y-78827381D02*
X106075000Y-79065476D01*
X105836905Y-78970238D02*
X106075000Y-79065476D01*
X106313096Y-78970238D01*
X105932143Y-79255952D02*
X106075000Y-79065476D01*
X106217858Y-79255952D01*
X106836905Y-78827381D02*
X106836905Y-79065476D01*
X106598810Y-78970238D02*
X106836905Y-79065476D01*
X107075001Y-78970238D01*
X106694048Y-79255952D02*
X106836905Y-79065476D01*
X106979763Y-79255952D01*
X120833334Y-90107143D02*
X120785715Y-90154762D01*
X120642858Y-90202381D01*
X120547620Y-90202381D01*
X120404762Y-90154762D01*
X120309524Y-90059524D01*
X120261905Y-89964286D01*
X120214286Y-89773810D01*
X120214286Y-89630952D01*
X120261905Y-89440476D01*
X120309524Y-89345238D01*
X120404762Y-89250000D01*
X120547620Y-89202381D01*
X120642858Y-89202381D01*
X120785715Y-89250000D01*
X120833334Y-89297619D01*
X121785715Y-90202381D02*
X121214286Y-90202381D01*
X121500000Y-90202381D02*
X121500000Y-89202381D01*
X121404762Y-89345238D01*
X121309524Y-89440476D01*
X121214286Y-89488095D01*
X139083334Y-93857143D02*
X139035715Y-93904762D01*
X138892858Y-93952381D01*
X138797620Y-93952381D01*
X138654762Y-93904762D01*
X138559524Y-93809524D01*
X138511905Y-93714286D01*
X138464286Y-93523810D01*
X138464286Y-93380952D01*
X138511905Y-93190476D01*
X138559524Y-93095238D01*
X138654762Y-93000000D01*
X138797620Y-92952381D01*
X138892858Y-92952381D01*
X139035715Y-93000000D01*
X139083334Y-93047619D01*
X139464286Y-93047619D02*
X139511905Y-93000000D01*
X139607143Y-92952381D01*
X139845239Y-92952381D01*
X139940477Y-93000000D01*
X139988096Y-93047619D01*
X140035715Y-93142857D01*
X140035715Y-93238095D01*
X139988096Y-93380952D01*
X139416667Y-93952381D01*
X140035715Y-93952381D01*
X159372143Y-93448095D02*
X159419762Y-93495714D01*
X159467381Y-93638571D01*
X159467381Y-93733809D01*
X159419762Y-93876667D01*
X159324524Y-93971905D01*
X159229286Y-94019524D01*
X159038810Y-94067143D01*
X158895952Y-94067143D01*
X158705476Y-94019524D01*
X158610238Y-93971905D01*
X158515000Y-93876667D01*
X158467381Y-93733809D01*
X158467381Y-93638571D01*
X158515000Y-93495714D01*
X158562619Y-93448095D01*
X159467381Y-92876667D02*
X159419762Y-92971905D01*
X159372143Y-93019524D01*
X159276905Y-93067143D01*
X158991190Y-93067143D01*
X158895952Y-93019524D01*
X158848333Y-92971905D01*
X158800714Y-92876667D01*
X158800714Y-92733809D01*
X158848333Y-92638571D01*
X158895952Y-92590952D01*
X158991190Y-92543333D01*
X159276905Y-92543333D01*
X159372143Y-92590952D01*
X159419762Y-92638571D01*
X159467381Y-92733809D01*
X159467381Y-92876667D01*
X158800714Y-92114762D02*
X159467381Y-92114762D01*
X158895952Y-92114762D02*
X158848333Y-92067143D01*
X158800714Y-91971905D01*
X158800714Y-91829047D01*
X158848333Y-91733809D01*
X158943571Y-91686190D01*
X159467381Y-91686190D01*
X158800714Y-91210000D02*
X159467381Y-91210000D01*
X158895952Y-91210000D02*
X158848333Y-91162381D01*
X158800714Y-91067143D01*
X158800714Y-90924285D01*
X158848333Y-90829047D01*
X158943571Y-90781428D01*
X159467381Y-90781428D01*
X159562619Y-90543333D02*
X159562619Y-89781428D01*
X158467381Y-89352857D02*
X158467381Y-89257618D01*
X158515000Y-89162380D01*
X158562619Y-89114761D01*
X158657857Y-89067142D01*
X158848333Y-89019523D01*
X159086429Y-89019523D01*
X159276905Y-89067142D01*
X159372143Y-89114761D01*
X159419762Y-89162380D01*
X159467381Y-89257618D01*
X159467381Y-89352857D01*
X159419762Y-89448095D01*
X159372143Y-89495714D01*
X159276905Y-89543333D01*
X159086429Y-89590952D01*
X158848333Y-89590952D01*
X158657857Y-89543333D01*
X158562619Y-89495714D01*
X158515000Y-89448095D01*
X158467381Y-89352857D01*
X159467381Y-88067142D02*
X159467381Y-88638571D01*
X159467381Y-88352857D02*
X158467381Y-88352857D01*
X158610238Y-88448095D01*
X158705476Y-88543333D01*
X158753095Y-88638571D01*
X159467381Y-87733809D02*
X158800714Y-87209999D01*
X158800714Y-87733809D02*
X159467381Y-87209999D01*
X158467381Y-86638571D02*
X158467381Y-86543332D01*
X158515000Y-86448094D01*
X158562619Y-86400475D01*
X158657857Y-86352856D01*
X158848333Y-86305237D01*
X159086429Y-86305237D01*
X159276905Y-86352856D01*
X159372143Y-86400475D01*
X159419762Y-86448094D01*
X159467381Y-86543332D01*
X159467381Y-86638571D01*
X159419762Y-86733809D01*
X159372143Y-86781428D01*
X159276905Y-86829047D01*
X159086429Y-86876666D01*
X158848333Y-86876666D01*
X158657857Y-86829047D01*
X158562619Y-86781428D01*
X158515000Y-86733809D01*
X158467381Y-86638571D01*
X158800714Y-85448094D02*
X159467381Y-85448094D01*
X158419762Y-85686190D02*
X159134048Y-85924285D01*
X159134048Y-85305237D01*
X153717381Y-90043333D02*
X154431667Y-90043333D01*
X154574524Y-90090953D01*
X154669762Y-90186191D01*
X154717381Y-90329048D01*
X154717381Y-90424286D01*
X154717381Y-89043333D02*
X154717381Y-89614762D01*
X154717381Y-89329048D02*
X153717381Y-89329048D01*
X153860238Y-89424286D01*
X153955476Y-89519524D01*
X154003095Y-89614762D01*
X159372143Y-104973095D02*
X159419762Y-105020714D01*
X159467381Y-105163571D01*
X159467381Y-105258809D01*
X159419762Y-105401667D01*
X159324524Y-105496905D01*
X159229286Y-105544524D01*
X159038810Y-105592143D01*
X158895952Y-105592143D01*
X158705476Y-105544524D01*
X158610238Y-105496905D01*
X158515000Y-105401667D01*
X158467381Y-105258809D01*
X158467381Y-105163571D01*
X158515000Y-105020714D01*
X158562619Y-104973095D01*
X159467381Y-104401667D02*
X159419762Y-104496905D01*
X159372143Y-104544524D01*
X159276905Y-104592143D01*
X158991190Y-104592143D01*
X158895952Y-104544524D01*
X158848333Y-104496905D01*
X158800714Y-104401667D01*
X158800714Y-104258809D01*
X158848333Y-104163571D01*
X158895952Y-104115952D01*
X158991190Y-104068333D01*
X159276905Y-104068333D01*
X159372143Y-104115952D01*
X159419762Y-104163571D01*
X159467381Y-104258809D01*
X159467381Y-104401667D01*
X158800714Y-103639762D02*
X159467381Y-103639762D01*
X158895952Y-103639762D02*
X158848333Y-103592143D01*
X158800714Y-103496905D01*
X158800714Y-103354047D01*
X158848333Y-103258809D01*
X158943571Y-103211190D01*
X159467381Y-103211190D01*
X158800714Y-102735000D02*
X159467381Y-102735000D01*
X158895952Y-102735000D02*
X158848333Y-102687381D01*
X158800714Y-102592143D01*
X158800714Y-102449285D01*
X158848333Y-102354047D01*
X158943571Y-102306428D01*
X159467381Y-102306428D01*
X159562619Y-102068333D02*
X159562619Y-101306428D01*
X158467381Y-100877857D02*
X158467381Y-100782618D01*
X158515000Y-100687380D01*
X158562619Y-100639761D01*
X158657857Y-100592142D01*
X158848333Y-100544523D01*
X159086429Y-100544523D01*
X159276905Y-100592142D01*
X159372143Y-100639761D01*
X159419762Y-100687380D01*
X159467381Y-100782618D01*
X159467381Y-100877857D01*
X159419762Y-100973095D01*
X159372143Y-101020714D01*
X159276905Y-101068333D01*
X159086429Y-101115952D01*
X158848333Y-101115952D01*
X158657857Y-101068333D01*
X158562619Y-101020714D01*
X158515000Y-100973095D01*
X158467381Y-100877857D01*
X159467381Y-99592142D02*
X159467381Y-100163571D01*
X159467381Y-99877857D02*
X158467381Y-99877857D01*
X158610238Y-99973095D01*
X158705476Y-100068333D01*
X158753095Y-100163571D01*
X159467381Y-99258809D02*
X158800714Y-98734999D01*
X158800714Y-99258809D02*
X159467381Y-98734999D01*
X158467381Y-98163571D02*
X158467381Y-98068332D01*
X158515000Y-97973094D01*
X158562619Y-97925475D01*
X158657857Y-97877856D01*
X158848333Y-97830237D01*
X159086429Y-97830237D01*
X159276905Y-97877856D01*
X159372143Y-97925475D01*
X159419762Y-97973094D01*
X159467381Y-98068332D01*
X159467381Y-98163571D01*
X159419762Y-98258809D01*
X159372143Y-98306428D01*
X159276905Y-98354047D01*
X159086429Y-98401666D01*
X158848333Y-98401666D01*
X158657857Y-98354047D01*
X158562619Y-98306428D01*
X158515000Y-98258809D01*
X158467381Y-98163571D01*
X158562619Y-97449285D02*
X158515000Y-97401666D01*
X158467381Y-97306428D01*
X158467381Y-97068332D01*
X158515000Y-96973094D01*
X158562619Y-96925475D01*
X158657857Y-96877856D01*
X158753095Y-96877856D01*
X158895952Y-96925475D01*
X159467381Y-97496904D01*
X159467381Y-96877856D01*
X153717381Y-101568333D02*
X154431667Y-101568333D01*
X154574524Y-101615953D01*
X154669762Y-101711191D01*
X154717381Y-101854048D01*
X154717381Y-101949286D01*
X153812619Y-101139762D02*
X153765000Y-101092143D01*
X153717381Y-100996905D01*
X153717381Y-100758809D01*
X153765000Y-100663571D01*
X153812619Y-100615952D01*
X153907857Y-100568333D01*
X154003095Y-100568333D01*
X154145952Y-100615952D01*
X154717381Y-101187381D01*
X154717381Y-100568333D01*
X101692143Y-98813095D02*
X101739762Y-98860714D01*
X101787381Y-99003571D01*
X101787381Y-99098809D01*
X101739762Y-99241667D01*
X101644524Y-99336905D01*
X101549286Y-99384524D01*
X101358810Y-99432143D01*
X101215952Y-99432143D01*
X101025476Y-99384524D01*
X100930238Y-99336905D01*
X100835000Y-99241667D01*
X100787381Y-99098809D01*
X100787381Y-99003571D01*
X100835000Y-98860714D01*
X100882619Y-98813095D01*
X101787381Y-98241667D02*
X101739762Y-98336905D01*
X101692143Y-98384524D01*
X101596905Y-98432143D01*
X101311190Y-98432143D01*
X101215952Y-98384524D01*
X101168333Y-98336905D01*
X101120714Y-98241667D01*
X101120714Y-98098809D01*
X101168333Y-98003571D01*
X101215952Y-97955952D01*
X101311190Y-97908333D01*
X101596905Y-97908333D01*
X101692143Y-97955952D01*
X101739762Y-98003571D01*
X101787381Y-98098809D01*
X101787381Y-98241667D01*
X101120714Y-97479762D02*
X101787381Y-97479762D01*
X101215952Y-97479762D02*
X101168333Y-97432143D01*
X101120714Y-97336905D01*
X101120714Y-97194047D01*
X101168333Y-97098809D01*
X101263571Y-97051190D01*
X101787381Y-97051190D01*
X101120714Y-96575000D02*
X101787381Y-96575000D01*
X101215952Y-96575000D02*
X101168333Y-96527381D01*
X101120714Y-96432143D01*
X101120714Y-96289285D01*
X101168333Y-96194047D01*
X101263571Y-96146428D01*
X101787381Y-96146428D01*
X101882619Y-95908333D02*
X101882619Y-95146428D01*
X100787381Y-94717857D02*
X100787381Y-94622618D01*
X100835000Y-94527380D01*
X100882619Y-94479761D01*
X100977857Y-94432142D01*
X101168333Y-94384523D01*
X101406429Y-94384523D01*
X101596905Y-94432142D01*
X101692143Y-94479761D01*
X101739762Y-94527380D01*
X101787381Y-94622618D01*
X101787381Y-94717857D01*
X101739762Y-94813095D01*
X101692143Y-94860714D01*
X101596905Y-94908333D01*
X101406429Y-94955952D01*
X101168333Y-94955952D01*
X100977857Y-94908333D01*
X100882619Y-94860714D01*
X100835000Y-94813095D01*
X100787381Y-94717857D01*
X101787381Y-93432142D02*
X101787381Y-94003571D01*
X101787381Y-93717857D02*
X100787381Y-93717857D01*
X100930238Y-93813095D01*
X101025476Y-93908333D01*
X101073095Y-94003571D01*
X101787381Y-93098809D02*
X101120714Y-92574999D01*
X101120714Y-93098809D02*
X101787381Y-92574999D01*
X100787381Y-92003571D02*
X100787381Y-91908332D01*
X100835000Y-91813094D01*
X100882619Y-91765475D01*
X100977857Y-91717856D01*
X101168333Y-91670237D01*
X101406429Y-91670237D01*
X101596905Y-91717856D01*
X101692143Y-91765475D01*
X101739762Y-91813094D01*
X101787381Y-91908332D01*
X101787381Y-92003571D01*
X101739762Y-92098809D01*
X101692143Y-92146428D01*
X101596905Y-92194047D01*
X101406429Y-92241666D01*
X101168333Y-92241666D01*
X100977857Y-92194047D01*
X100882619Y-92146428D01*
X100835000Y-92098809D01*
X100787381Y-92003571D01*
X101120714Y-90813094D02*
X101787381Y-90813094D01*
X100739762Y-91051190D02*
X101454048Y-91289285D01*
X101454048Y-90670237D01*
X105537381Y-95408333D02*
X106251667Y-95408333D01*
X106394524Y-95455953D01*
X106489762Y-95551191D01*
X106537381Y-95694048D01*
X106537381Y-95789286D01*
X105537381Y-95027381D02*
X105537381Y-94408333D01*
X105918333Y-94741667D01*
X105918333Y-94598809D01*
X105965952Y-94503571D01*
X106013571Y-94455952D01*
X106108810Y-94408333D01*
X106346905Y-94408333D01*
X106442143Y-94455952D01*
X106489762Y-94503571D01*
X106537381Y-94598809D01*
X106537381Y-94884524D01*
X106489762Y-94979762D01*
X106442143Y-95027381D01*
D12*
X127226190Y-108083333D02*
X126988095Y-108250000D01*
X127226190Y-108369047D02*
X126726190Y-108369047D01*
X126726190Y-108178571D01*
X126750000Y-108130952D01*
X126773810Y-108107143D01*
X126821429Y-108083333D01*
X126892857Y-108083333D01*
X126940476Y-108107143D01*
X126964286Y-108130952D01*
X126988095Y-108178571D01*
X126988095Y-108369047D01*
X127226190Y-107607143D02*
X127226190Y-107892857D01*
X127226190Y-107750000D02*
X126726190Y-107750000D01*
X126797619Y-107797619D01*
X126845238Y-107845238D01*
X126869048Y-107892857D01*
X132476190Y-108083333D02*
X132238095Y-108250000D01*
X132476190Y-108369047D02*
X131976190Y-108369047D01*
X131976190Y-108178571D01*
X132000000Y-108130952D01*
X132023810Y-108107143D01*
X132071429Y-108083333D01*
X132142857Y-108083333D01*
X132190476Y-108107143D01*
X132214286Y-108130952D01*
X132238095Y-108178571D01*
X132238095Y-108369047D01*
X132023810Y-107892857D02*
X132000000Y-107869047D01*
X131976190Y-107821428D01*
X131976190Y-107702381D01*
X132000000Y-107654762D01*
X132023810Y-107630952D01*
X132071429Y-107607143D01*
X132119048Y-107607143D01*
X132190476Y-107630952D01*
X132476190Y-107916666D01*
X132476190Y-107607143D01*
X137976190Y-108083333D02*
X137738095Y-108250000D01*
X137976190Y-108369047D02*
X137476190Y-108369047D01*
X137476190Y-108178571D01*
X137500000Y-108130952D01*
X137523810Y-108107143D01*
X137571429Y-108083333D01*
X137642857Y-108083333D01*
X137690476Y-108107143D01*
X137714286Y-108130952D01*
X137738095Y-108178571D01*
X137738095Y-108369047D01*
X137476190Y-107916666D02*
X137476190Y-107607143D01*
X137666667Y-107773809D01*
X137666667Y-107702381D01*
X137690476Y-107654762D01*
X137714286Y-107630952D01*
X137761905Y-107607143D01*
X137880952Y-107607143D01*
X137928571Y-107630952D01*
X137952381Y-107654762D01*
X137976190Y-107702381D01*
X137976190Y-107845238D01*
X137952381Y-107892857D01*
X137928571Y-107916666D01*
D11*
X131758484Y-100285167D02*
X131893171Y-100217824D01*
X132061530Y-100049464D01*
X132095202Y-99948449D01*
X132095202Y-99881106D01*
X132061530Y-99780091D01*
X131994187Y-99712747D01*
X131893171Y-99679075D01*
X131825828Y-99679075D01*
X131724812Y-99712746D01*
X131556453Y-99813762D01*
X131455438Y-99847434D01*
X131388094Y-99847434D01*
X131287079Y-99813762D01*
X131219736Y-99746419D01*
X131186064Y-99645404D01*
X131186064Y-99578060D01*
X131219736Y-99477045D01*
X131388095Y-99308686D01*
X131522782Y-99241342D01*
X131724812Y-98971969D02*
X132600278Y-99510717D01*
X132229889Y-98870953D01*
X132869652Y-99241342D01*
X132330904Y-98365877D01*
X133206369Y-99039312D02*
X133745117Y-98500564D01*
X133846133Y-98264862D02*
X133139026Y-97557755D01*
X133408400Y-97288381D01*
X133509415Y-97254709D01*
X133576759Y-97254709D01*
X133677774Y-97288381D01*
X133778789Y-97389396D01*
X133812461Y-97490411D01*
X133812461Y-97557754D01*
X133778789Y-97658769D01*
X133509415Y-97928144D01*
X134384881Y-96783304D02*
X134856285Y-97254709D01*
X134081835Y-97086350D02*
X134452224Y-97456740D01*
X134553239Y-97490412D01*
X134654254Y-97456740D01*
X134755270Y-97355724D01*
X134788942Y-97254709D01*
X134788942Y-97187365D01*
X135125659Y-96917992D02*
X135226674Y-96884320D01*
X135361361Y-96749633D01*
X135395034Y-96648617D01*
X135361362Y-96547602D01*
X135327690Y-96513930D01*
X135226675Y-96480259D01*
X135125659Y-96513931D01*
X135024644Y-96614946D01*
X134923629Y-96648618D01*
X134822613Y-96614946D01*
X134788941Y-96581274D01*
X134755270Y-96480259D01*
X134788941Y-96379244D01*
X134889956Y-96278228D01*
X134990972Y-96244556D01*
X135765423Y-96345572D02*
X135058316Y-95638465D01*
X136068469Y-96042526D02*
X135698079Y-95672136D01*
X135597064Y-95638464D01*
X135496049Y-95672136D01*
X135395033Y-95773152D01*
X135361361Y-95874167D01*
X135361361Y-95941510D01*
X129470488Y-96279912D02*
X129605175Y-96212568D01*
X129773534Y-96044209D01*
X129807206Y-95943194D01*
X129807206Y-95875850D01*
X129773534Y-95774835D01*
X129706191Y-95707492D01*
X129605176Y-95673820D01*
X129537832Y-95673820D01*
X129436816Y-95707491D01*
X129268457Y-95808507D01*
X129167442Y-95842179D01*
X129100099Y-95842179D01*
X128999083Y-95808507D01*
X128931740Y-95741164D01*
X128898068Y-95640148D01*
X128898068Y-95572805D01*
X128931740Y-95471790D01*
X129100099Y-95303431D01*
X129234786Y-95236087D01*
X129436816Y-94966713D02*
X130312282Y-95505462D01*
X129941893Y-94865697D01*
X130581656Y-95236087D01*
X130042908Y-94360622D01*
X131389778Y-94427965D02*
X130985717Y-94832026D01*
X131187747Y-94629996D02*
X130480640Y-93922889D01*
X130514312Y-94091248D01*
X130514312Y-94225935D01*
X130480640Y-94326950D01*
M02*
